<svg xmlns="http://www.w3.org/2000/svg" width="48" height="48" viewBox="0 0 48 48">
  <defs>
    <filter id="shadow" x="-20%" y="-20%" width="140%" height="140%">
      <feDropShadow dx="0" dy="2" stdDeviation="2" flood-color="#000" flood-opacity="0.12"/>
    </filter>
  </defs>
  
  <!-- Background circle -->
  <circle cx="24" cy="24" r="21" fill="#4B5563" filter="url(#shadow)"/>
  <circle cx="24" cy="24" r="19" fill="#6B7280"/>
  <circle cx="24" cy="24" r="16" fill="none" stroke="#9CA3AF" stroke-width="1"/>
  
  <!-- WiFi symbol (left side) -->
  <!-- WiFi dot -->
  <circle cx="15" cy="30" r="2.5" fill="#2196F3"/>
  <circle cx="15" cy="30" r="1.5" fill="#64B5F6"/>
  
  <!-- WiFi arcs -->
  <path d="M 10 26 A 6 6 0 0 1 20 26" fill="none" stroke="#2196F3" stroke-width="2" stroke-linecap="round"/>
  <path d="M 7 22 A 10 10 0 0 1 23 22" fill="none" stroke="#2196F3" stroke-width="2" stroke-linecap="round" opacity="0.7"/>
  <path d="M 4 18 A 14 14 0 0 1 26 18" fill="none" stroke="#2196F3" stroke-width="2" stroke-linecap="round" opacity="0.4"/>
  
  <!-- Divider line -->
  <line x1="24" y1="10" x2="24" y2="38" stroke="#4B5563" stroke-width="2"/>
  
  <!-- Restroom symbol (right side) -->
  <!-- Person figure -->
  <circle cx="33" cy="16" r="3" fill="#FFFFFF"/>
  <rect x="30" y="20" width="6" height="8" rx="1" fill="#FFFFFF"/>
  
  <!-- Toilet/fixture symbol -->
  <ellipse cx="33" cy="34" rx="5" ry="4" fill="#E5E7EB"/>
  <ellipse cx="33" cy="34" rx="3" ry="2.5" fill="#F3F4F6"/>
  
  <!-- Status indicator -->
  <circle cx="40" cy="40" r="4" fill="#4CAF50"/>
  <circle cx="40" cy="40" r="2.5" fill="#81C784"/>
  <circle cx="39" cy="39" r="1" fill="#FFFFFF" opacity="0.5"/>
</svg>

