<svg xmlns="http://www.w3.org/2000/svg" width="48" height="48" viewBox="0 0 48 48">
  <defs>
    <filter id="shadow" x="-20%" y="-20%" width="140%" height="140%">
      <feDropShadow dx="0" dy="2" stdDeviation="2" flood-color="#000" flood-opacity="0.12"/>
    </filter>
    <filter id="glow" x="-50%" y="-50%" width="200%" height="200%">
      <feGaussianBlur stdDeviation="3" result="blur"/>
      <feMerge>
        <feMergeNode in="blur"/>
        <feMergeNode in="SourceGraphic"/>
      </feMerge>
    </filter>
    <linearGradient id="icon_shine" x1="0%" y1="0%" x2="100%" y2="100%">
      <stop offset="0%" style="stop-color:#FFFFFF;stop-opacity:0.3"/>
      <stop offset="50%" style="stop-color:#FFFFFF;stop-opacity:0"/>
    </linearGradient>
  </defs>
  <ellipse cx="24" cy="28" rx="12" ry="16" fill="#1F2937"/>
  <ellipse cx="24" cy="30" rx="8" ry="12" fill="#FFFFFF"/>
  <circle cx="24" cy="12" r="9" fill="#1F2937"/>
  <ellipse cx="24" cy="14" rx="6" ry="5" fill="#FFFFFF"/>
  <circle cx="21" cy="12" r="2.5" fill="#FFFFFF"/>
  <circle cx="27" cy="12" r="2.5" fill="#FFFFFF"/>
  <circle cx="21" cy="12" r="1.2" fill="#1F2937"/>
  <circle cx="27" cy="12" r="1.2" fill="#1F2937"/>
  <path d="M21 16 L24 19 L27 16 Z" fill="#FF9800"/>
  <ellipse cx="19" cy="44" rx="5" ry="2" fill="#FF9800"/>
  <ellipse cx="29" cy="44" rx="5" ry="2" fill="#FF9800"/>
  <ellipse cx="13" cy="26" rx="3" ry="8" fill="#1F2937" transform="rotate(-15 13 26)"/>
  <ellipse cx="35" cy="26" rx="3" ry="8" fill="#1F2937" transform="rotate(15 35 26)"/>
</svg>
