<svg xmlns="http://www.w3.org/2000/svg" width="256" height="192" viewBox="0 0 256 192">
  <defs>
    <filter id="shadow" x="-20%" y="-20%" width="140%" height="140%">
      <feDropShadow dx="0" dy="2" stdDeviation="2" flood-color="#000" flood-opacity="0.12"/>
    </filter>
    <filter id="glow" x="-50%" y="-50%" width="200%" height="200%">
      <feGaussianBlur stdDeviation="3" result="blur"/>
      <feMerge>
        <feMergeNode in="blur"/>
        <feMergeNode in="SourceGraphic"/>
      </feMerge>
    </filter>
    <linearGradient id="premium_roof" x1="0%" y1="0%" x2="0%" y2="100%">
      <stop offset="0%" style="stop-color:#374151;stop-opacity:1"/>
      <stop offset="100%" style="stop-color:#1F2937;stop-opacity:1"/>
    </linearGradient>
    <linearGradient id="gold_trim" x1="0%" y1="0%" x2="100%" y2="0%">
      <stop offset="0%" style="stop-color:#F59E0B;stop-opacity:1"/>
      <stop offset="50%" style="stop-color:#FCD34D;stop-opacity:1"/>
      <stop offset="100%" style="stop-color:#F59E0B;stop-opacity:1"/>
    </linearGradient>
  </defs>
  <ellipse cx="128" cy="184" rx="120" ry="8" fill="#000000" opacity="0.12"/>
  <rect x="8" y="12" width="240" height="168" rx="8" fill="#111827" filter="url(#shadow)"/>
  <rect x="10" y="12" width="236" height="164" rx="7" fill="url(#premium_roof)"/>
  <rect x="12" y="14" width="232" height="4" rx="2" fill="url(#gold_trim)" opacity="0.7"/>
  <rect x="12" y="172" width="232" height="4" rx="2" fill="url(#gold_trim)" opacity="0.7"/>
  <rect x="12" y="14" width="4" height="162" rx="2" fill="url(#gold_trim)" opacity="0.5"/>
  <rect x="240" y="14" width="4" height="162" rx="2" fill="url(#gold_trim)" opacity="0.5"/>
  <rect x="200" y="24" width="32" height="18" rx="3" fill="#4B5563" filter="url(#shadow)"/>
  <rect x="202" y="26" width="28" height="14" rx="2" fill="#6B7280" filter="url(#shadow)"/>
  <circle cx="216" cy="33" r="4" fill="#4B5563"/>
  <circle cx="216" cy="33" r="3" fill="none" stroke="#9CA3AF" stroke-width="0.5"/>
  <rect x="100" y="28" width="56" height="24" rx="4" fill="#B8D4E8"/>
  <rect x="104" y="32" width="48" height="16" rx="3" fill="#B8D4E8" opacity="0.4"/>
  <rect x="100" y="90" width="4" height="48" rx="1" fill="#D1D5DB"/>
  <line x1="98" y1="90" x2="98" y2="82" stroke="#D1D5DB" stroke-width="2"/>
  <line x1="102" y1="90" x2="102" y2="82" stroke="#D1D5DB" stroke-width="2"/>
  <line x1="106" y1="90" x2="106" y2="82" stroke="#D1D5DB" stroke-width="2"/>
  <rect x="152" y="90" width="4" height="48" rx="1" fill="#D1D5DB"/>
  <path d="M 150 78 L 158 78 L 156 90 L 152 90 Z" fill="#D1D5DB"/>
  <circle cx="128" cy="110" r="18" fill="#9CA3AF"/>
  <circle cx="128" cy="110" r="16" fill="#E5E7EB"/>
  <circle cx="128" cy="110" r="14" fill="none" stroke="#9CA3AF" stroke-width="1"/>
  <path d="M 28 166 L 26 154 L 40 154 L 38 166 Z" fill="#E0DCD6"/>
  <ellipse cx="33" cy="154" rx="7" ry="2" fill="#F0EDE8"/>
  <circle cx="33" cy="150" r="3" fill="#16A34A"/>
  <path d="M 218 166 L 216 154 L 230 154 L 228 166 Z" fill="#E0DCD6"/>
  <ellipse cx="223" cy="154" rx="7" ry="2" fill="#F0EDE8"/>
  <circle cx="223" cy="150" r="3" fill="#16A34A"/>
  <circle cx="128" cy="166" r="4" fill="#4CAF50"/>
  <circle cx="128" cy="166" r="2" fill="#81C784" opacity="0.8"/>
</svg>
