<svg xmlns="http://www.w3.org/2000/svg" width="128" height="64" viewBox="0 0 128 64">
  <defs>
    <filter id="shadow" x="-20%" y="-20%" width="140%" height="140%">
      <feDropShadow dx="0" dy="2" stdDeviation="2" flood-color="#000" flood-opacity="0.12"/>
    </filter>
    <filter id="glow" x="-50%" y="-50%" width="200%" height="200%">
      <feGaussianBlur stdDeviation="3" result="blur"/>
      <feMerge>
        <feMergeNode in="blur"/>
        <feMergeNode in="SourceGraphic"/>
      </feMerge>
    </filter>
    <linearGradient id="solar_panel" x1="0%" y1="0%" x2="0%" y2="100%">
      <stop offset="0%" style="stop-color:#1E3A5F;stop-opacity:1"/>
      <stop offset="50%" style="stop-color:#2563EB;stop-opacity:1"/>
      <stop offset="100%" style="stop-color:#1E3A5F;stop-opacity:1"/>
    </linearGradient>
    <linearGradient id="solar_frame" x1="0%" y1="0%" x2="100%" y2="0%">
      <stop offset="0%" style="stop-color:#4B5563;stop-opacity:1"/>
      <stop offset="50%" style="stop-color:#9CA3AF;stop-opacity:1"/>
      <stop offset="100%" style="stop-color:#4B5563;stop-opacity:1"/>
    </linearGradient>
  </defs>
  <ellipse cx="64" cy="58" rx="58" ry="5" fill="#000000" opacity="0.12"/>
  <rect x="6" y="6" width="28" height="16" rx="2" fill="url(#solar_frame)" filter="url(#shadow)"/>
  <rect x="8" y="8" width="24" height="12" rx="1" fill="url(#solar_panel)"/>
  <line x1="8" y1="12.0" x2="32" y2="12.0" stroke="#0F172A" stroke-width="0.5" opacity="0.6"/>
  <line x1="8" y1="16.0" x2="32" y2="16.0" stroke="#0F172A" stroke-width="0.5" opacity="0.6"/>
  <line x1="14.0" y1="8" x2="14.0" y2="20" stroke="#0F172A" stroke-width="0.5" opacity="0.6"/>
  <line x1="20.0" y1="8" x2="20.0" y2="20" stroke="#0F172A" stroke-width="0.5" opacity="0.6"/>
  <line x1="26.0" y1="8" x2="26.0" y2="20" stroke="#0F172A" stroke-width="0.5" opacity="0.6"/>
  <rect x="9" y="9" width="14" height="2" rx="1" fill="#FFFFFF" opacity="0.15"/>
  <rect x="38" y="6" width="28" height="16" rx="2" fill="url(#solar_frame)" filter="url(#shadow)"/>
  <rect x="40" y="8" width="24" height="12" rx="1" fill="url(#solar_panel)"/>
  <line x1="40" y1="12.0" x2="64" y2="12.0" stroke="#0F172A" stroke-width="0.5" opacity="0.6"/>
  <line x1="40" y1="16.0" x2="64" y2="16.0" stroke="#0F172A" stroke-width="0.5" opacity="0.6"/>
  <line x1="46.0" y1="8" x2="46.0" y2="20" stroke="#0F172A" stroke-width="0.5" opacity="0.6"/>
  <line x1="52.0" y1="8" x2="52.0" y2="20" stroke="#0F172A" stroke-width="0.5" opacity="0.6"/>
  <line x1="58.0" y1="8" x2="58.0" y2="20" stroke="#0F172A" stroke-width="0.5" opacity="0.6"/>
  <rect x="41" y="9" width="14" height="2" rx="1" fill="#FFFFFF" opacity="0.15"/>
  <rect x="70" y="6" width="28" height="16" rx="2" fill="url(#solar_frame)" filter="url(#shadow)"/>
  <rect x="72" y="8" width="24" height="12" rx="1" fill="url(#solar_panel)"/>
  <line x1="72" y1="12.0" x2="96" y2="12.0" stroke="#0F172A" stroke-width="0.5" opacity="0.6"/>
  <line x1="72" y1="16.0" x2="96" y2="16.0" stroke="#0F172A" stroke-width="0.5" opacity="0.6"/>
  <line x1="78.0" y1="8" x2="78.0" y2="20" stroke="#0F172A" stroke-width="0.5" opacity="0.6"/>
  <line x1="84.0" y1="8" x2="84.0" y2="20" stroke="#0F172A" stroke-width="0.5" opacity="0.6"/>
  <line x1="90.0" y1="8" x2="90.0" y2="20" stroke="#0F172A" stroke-width="0.5" opacity="0.6"/>
  <rect x="73" y="9" width="14" height="2" rx="1" fill="#FFFFFF" opacity="0.15"/>
  <rect x="102" y="6" width="28" height="16" rx="2" fill="url(#solar_frame)" filter="url(#shadow)"/>
  <rect x="104" y="8" width="24" height="12" rx="1" fill="url(#solar_panel)"/>
  <line x1="104" y1="12.0" x2="128" y2="12.0" stroke="#0F172A" stroke-width="0.5" opacity="0.6"/>
  <line x1="104" y1="16.0" x2="128" y2="16.0" stroke="#0F172A" stroke-width="0.5" opacity="0.6"/>
  <line x1="110.0" y1="8" x2="110.0" y2="20" stroke="#0F172A" stroke-width="0.5" opacity="0.6"/>
  <line x1="116.0" y1="8" x2="116.0" y2="20" stroke="#0F172A" stroke-width="0.5" opacity="0.6"/>
  <line x1="122.0" y1="8" x2="122.0" y2="20" stroke="#0F172A" stroke-width="0.5" opacity="0.6"/>
  <rect x="105" y="9" width="14" height="2" rx="1" fill="#FFFFFF" opacity="0.15"/>
  <rect x="6" y="26" width="28" height="16" rx="2" fill="url(#solar_frame)" filter="url(#shadow)"/>
  <rect x="8" y="28" width="24" height="12" rx="1" fill="url(#solar_panel)"/>
  <line x1="8" y1="32.0" x2="32" y2="32.0" stroke="#0F172A" stroke-width="0.5" opacity="0.6"/>
  <line x1="8" y1="36.0" x2="32" y2="36.0" stroke="#0F172A" stroke-width="0.5" opacity="0.6"/>
  <line x1="14.0" y1="28" x2="14.0" y2="40" stroke="#0F172A" stroke-width="0.5" opacity="0.6"/>
  <line x1="20.0" y1="28" x2="20.0" y2="40" stroke="#0F172A" stroke-width="0.5" opacity="0.6"/>
  <line x1="26.0" y1="28" x2="26.0" y2="40" stroke="#0F172A" stroke-width="0.5" opacity="0.6"/>
  <rect x="9" y="29" width="14" height="2" rx="1" fill="#FFFFFF" opacity="0.15"/>
  <rect x="38" y="26" width="28" height="16" rx="2" fill="url(#solar_frame)" filter="url(#shadow)"/>
  <rect x="40" y="28" width="24" height="12" rx="1" fill="url(#solar_panel)"/>
  <line x1="40" y1="32.0" x2="64" y2="32.0" stroke="#0F172A" stroke-width="0.5" opacity="0.6"/>
  <line x1="40" y1="36.0" x2="64" y2="36.0" stroke="#0F172A" stroke-width="0.5" opacity="0.6"/>
  <line x1="46.0" y1="28" x2="46.0" y2="40" stroke="#0F172A" stroke-width="0.5" opacity="0.6"/>
  <line x1="52.0" y1="28" x2="52.0" y2="40" stroke="#0F172A" stroke-width="0.5" opacity="0.6"/>
  <line x1="58.0" y1="28" x2="58.0" y2="40" stroke="#0F172A" stroke-width="0.5" opacity="0.6"/>
  <rect x="41" y="29" width="14" height="2" rx="1" fill="#FFFFFF" opacity="0.15"/>
  <rect x="70" y="26" width="28" height="16" rx="2" fill="url(#solar_frame)" filter="url(#shadow)"/>
  <rect x="72" y="28" width="24" height="12" rx="1" fill="url(#solar_panel)"/>
  <line x1="72" y1="32.0" x2="96" y2="32.0" stroke="#0F172A" stroke-width="0.5" opacity="0.6"/>
  <line x1="72" y1="36.0" x2="96" y2="36.0" stroke="#0F172A" stroke-width="0.5" opacity="0.6"/>
  <line x1="78.0" y1="28" x2="78.0" y2="40" stroke="#0F172A" stroke-width="0.5" opacity="0.6"/>
  <line x1="84.0" y1="28" x2="84.0" y2="40" stroke="#0F172A" stroke-width="0.5" opacity="0.6"/>
  <line x1="90.0" y1="28" x2="90.0" y2="40" stroke="#0F172A" stroke-width="0.5" opacity="0.6"/>
  <rect x="73" y="29" width="14" height="2" rx="1" fill="#FFFFFF" opacity="0.15"/>
  <rect x="102" y="26" width="28" height="16" rx="2" fill="url(#solar_frame)" filter="url(#shadow)"/>
  <rect x="104" y="28" width="24" height="12" rx="1" fill="url(#solar_panel)"/>
  <line x1="104" y1="32.0" x2="128" y2="32.0" stroke="#0F172A" stroke-width="0.5" opacity="0.6"/>
  <line x1="104" y1="36.0" x2="128" y2="36.0" stroke="#0F172A" stroke-width="0.5" opacity="0.6"/>
  <line x1="110.0" y1="28" x2="110.0" y2="40" stroke="#0F172A" stroke-width="0.5" opacity="0.6"/>
  <line x1="116.0" y1="28" x2="116.0" y2="40" stroke="#0F172A" stroke-width="0.5" opacity="0.6"/>
  <line x1="122.0" y1="28" x2="122.0" y2="40" stroke="#0F172A" stroke-width="0.5" opacity="0.6"/>
  <rect x="105" y="29" width="14" height="2" rx="1" fill="#FFFFFF" opacity="0.15"/>
  <rect x="6" y="46" width="28" height="16" rx="2" fill="url(#solar_frame)" filter="url(#shadow)"/>
  <rect x="8" y="48" width="24" height="12" rx="1" fill="url(#solar_panel)"/>
  <line x1="8" y1="52.0" x2="32" y2="52.0" stroke="#0F172A" stroke-width="0.5" opacity="0.6"/>
  <line x1="8" y1="56.0" x2="32" y2="56.0" stroke="#0F172A" stroke-width="0.5" opacity="0.6"/>
  <line x1="14.0" y1="48" x2="14.0" y2="60" stroke="#0F172A" stroke-width="0.5" opacity="0.6"/>
  <line x1="20.0" y1="48" x2="20.0" y2="60" stroke="#0F172A" stroke-width="0.5" opacity="0.6"/>
  <line x1="26.0" y1="48" x2="26.0" y2="60" stroke="#0F172A" stroke-width="0.5" opacity="0.6"/>
  <rect x="9" y="49" width="14" height="2" rx="1" fill="#FFFFFF" opacity="0.15"/>
  <rect x="38" y="46" width="28" height="16" rx="2" fill="url(#solar_frame)" filter="url(#shadow)"/>
  <rect x="40" y="48" width="24" height="12" rx="1" fill="url(#solar_panel)"/>
  <line x1="40" y1="52.0" x2="64" y2="52.0" stroke="#0F172A" stroke-width="0.5" opacity="0.6"/>
  <line x1="40" y1="56.0" x2="64" y2="56.0" stroke="#0F172A" stroke-width="0.5" opacity="0.6"/>
  <line x1="46.0" y1="48" x2="46.0" y2="60" stroke="#0F172A" stroke-width="0.5" opacity="0.6"/>
  <line x1="52.0" y1="48" x2="52.0" y2="60" stroke="#0F172A" stroke-width="0.5" opacity="0.6"/>
  <line x1="58.0" y1="48" x2="58.0" y2="60" stroke="#0F172A" stroke-width="0.5" opacity="0.6"/>
  <rect x="41" y="49" width="14" height="2" rx="1" fill="#FFFFFF" opacity="0.15"/>
  <rect x="70" y="46" width="28" height="16" rx="2" fill="url(#solar_frame)" filter="url(#shadow)"/>
  <rect x="72" y="48" width="24" height="12" rx="1" fill="url(#solar_panel)"/>
  <line x1="72" y1="52.0" x2="96" y2="52.0" stroke="#0F172A" stroke-width="0.5" opacity="0.6"/>
  <line x1="72" y1="56.0" x2="96" y2="56.0" stroke="#0F172A" stroke-width="0.5" opacity="0.6"/>
  <line x1="78.0" y1="48" x2="78.0" y2="60" stroke="#0F172A" stroke-width="0.5" opacity="0.6"/>
  <line x1="84.0" y1="48" x2="84.0" y2="60" stroke="#0F172A" stroke-width="0.5" opacity="0.6"/>
  <line x1="90.0" y1="48" x2="90.0" y2="60" stroke="#0F172A" stroke-width="0.5" opacity="0.6"/>
  <rect x="73" y="49" width="14" height="2" rx="1" fill="#FFFFFF" opacity="0.15"/>
  <rect x="102" y="46" width="28" height="16" rx="2" fill="url(#solar_frame)" filter="url(#shadow)"/>
  <rect x="104" y="48" width="24" height="12" rx="1" fill="url(#solar_panel)"/>
  <line x1="104" y1="52.0" x2="128" y2="52.0" stroke="#0F172A" stroke-width="0.5" opacity="0.6"/>
  <line x1="104" y1="56.0" x2="128" y2="56.0" stroke="#0F172A" stroke-width="0.5" opacity="0.6"/>
  <line x1="110.0" y1="48" x2="110.0" y2="60" stroke="#0F172A" stroke-width="0.5" opacity="0.6"/>
  <line x1="116.0" y1="48" x2="116.0" y2="60" stroke="#0F172A" stroke-width="0.5" opacity="0.6"/>
  <line x1="122.0" y1="48" x2="122.0" y2="60" stroke="#0F172A" stroke-width="0.5" opacity="0.6"/>
  <rect x="105" y="49" width="14" height="2" rx="1" fill="#FFFFFF" opacity="0.15"/>
  <rect x="2" y="56" width="8" height="6" rx="1" fill="#4B5563"/>
  <rect x="118" y="56" width="8" height="6" rx="1" fill="#4B5563"/>
  <rect x="2" y="2" width="8" height="6" rx="1" fill="#4B5563"/>
  <rect x="118" y="2" width="8" height="6" rx="1" fill="#4B5563"/>
  <rect x="4" y="28" width="120" height="2" rx="1" fill="#6B7280" opacity="0.5"/>
</svg>
