<svg xmlns="http://www.w3.org/2000/svg" width="128" height="48" viewBox="0 0 128 48">
  <defs>
    <filter id="shadow" x="-20%" y="-20%" width="140%" height="140%">
      <feDropShadow dx="0" dy="2" stdDeviation="2" flood-color="#000" flood-opacity="0.12"/>
    </filter>
    <filter id="glow" x="-50%" y="-50%" width="200%" height="200%">
      <feGaussianBlur stdDeviation="3" result="blur"/>
      <feMerge>
        <feMergeNode in="blur"/>
        <feMergeNode in="SourceGraphic"/>
      </feMerge>
    </filter>
    <linearGradient id="bess_body" x1="0%" y1="0%" x2="100%" y2="100%">
      <stop offset="0%" style="stop-color:#9CA3AF;stop-opacity:1"/>
      <stop offset="50%" style="stop-color:#6B7280;stop-opacity:1"/>
      <stop offset="100%" style="stop-color:#4B5563;stop-opacity:1"/>
    </linearGradient>
    <linearGradient id="bess_door" x1="0%" y1="0%" x2="100%" y2="0%">
      <stop offset="0%" style="stop-color:#4B5563;stop-opacity:1"/>
      <stop offset="50%" style="stop-color:#6B7280;stop-opacity:1"/>
      <stop offset="100%" style="stop-color:#4B5563;stop-opacity:1"/>
    </linearGradient>
  </defs>
  <ellipse cx="64" cy="44" rx="58" ry="4" fill="#000000" opacity="0.12"/>
  <rect x="4" y="4" width="120" height="38" rx="4" fill="#4B5563" filter="url(#shadow)"/>
  <rect x="6" y="4" width="116" height="36" rx="3" fill="url(#bess_body)"/>
  <rect x="8" y="5" width="112" height="2" rx="1" fill="#D1D5DB" opacity="0.4"/>
  <rect x="14" y="8" width="18" height="28" rx="2" fill="url(#bess_door)" opacity="0.7"/>
  <rect x="21" y="18" width="4" height="8" rx="1" fill="#9CA3AF"/>
  <rect x="36" y="8" width="18" height="28" rx="2" fill="url(#bess_door)" opacity="0.7"/>
  <rect x="43" y="18" width="4" height="8" rx="1" fill="#9CA3AF"/>
  <rect x="58" y="8" width="18" height="28" rx="2" fill="url(#bess_door)" opacity="0.7"/>
  <rect x="65" y="18" width="4" height="8" rx="1" fill="#9CA3AF"/>
  <rect x="80" y="8" width="18" height="28" rx="2" fill="url(#bess_door)" opacity="0.7"/>
  <rect x="87" y="18" width="4" height="8" rx="1" fill="#9CA3AF"/>
  <rect x="102" y="8" width="18" height="28" rx="2" fill="url(#bess_door)" opacity="0.7"/>
  <rect x="109" y="18" width="4" height="8" rx="1" fill="#9CA3AF"/>
  <rect x="100" y="8" width="20" height="14" rx="2" fill="#4B5563"/>
  <rect x="102" y="10" width="16" height="10" rx="1" fill="#6B7280"/>
  <circle cx="110" cy="15" r="4" fill="#4B5563"/>
  <circle cx="110" cy="15" r="3" fill="none" stroke="#9CA3AF" stroke-width="0.5"/>
  <circle cx="110" cy="15" r="1.5" fill="none" stroke="#9CA3AF" stroke-width="0.5"/>
  <rect x="8" y="28" width="14" height="10" rx="1" fill="#FFC107"/>
  <path d="M15 29 L19 37 L11 37 Z" fill="#000000" opacity="0.7"/>
  <line x1="15" y1="31" x2="15" y2="34" stroke="#000000" stroke-width="1.5" opacity="0.7"/>
  <circle cx="15" cy="35.5" r="0.8" fill="#000000" opacity="0.7"/>
  <circle cx="108" cy="36" r="3" fill="#4CAF50"/>
  <circle cx="108" cy="36" r="1.5" fill="#81C784" opacity="0.8"/>
  <circle cx="118" cy="36" r="3" fill="#2196F3"/>
  <circle cx="118" cy="36" r="1.5" fill="#64B5F6" opacity="0.8"/>
  <rect x="24" y="36" width="12" height="6" rx="2" fill="#4B5563"/>
  <rect x="26" y="38" width="8" height="3" rx="1" fill="#6B7280"/>
  <text x="64" y="24" font-family="Arial, sans-serif" font-size="8" font-weight="bold" fill="#9CA3AF" text-anchor="middle" opacity="0.6">BESS</text>
</svg>
