<svg xmlns="http://www.w3.org/2000/svg" width="192" height="128" viewBox="0 0 192 128">
  <defs>
    <filter id="shadow" x="-20%" y="-20%" width="140%" height="140%">
      <feDropShadow dx="0" dy="2" stdDeviation="2" flood-color="#000" flood-opacity="0.12"/>
    </filter>
    <filter id="glow" x="-50%" y="-50%" width="200%" height="200%">
      <feGaussianBlur stdDeviation="3" result="blur"/>
      <feMerge>
        <feMergeNode in="blur"/>
        <feMergeNode in="SourceGraphic"/>
      </feMerge>
    </filter>
    <linearGradient id="amenity_warm" x1="0%" y1="0%" x2="0%" y2="100%">
      <stop offset="0%" style="stop-color:#B8956A;stop-opacity:1"/>
      <stop offset="100%" style="stop-color:#9C7F5C;stop-opacity:1"/>
    </linearGradient>
  </defs>
  <ellipse cx="96" cy="120" rx="88" ry="6" fill="#000000" opacity="0.12"/>
  <rect x="8" y="8" width="176" height="104" rx="6" fill="#8B7355" filter="url(#shadow)"/>
  <rect x="10" y="8" width="172" height="100" rx="5" fill="url(#amenity_warm)"/>
  <rect x="12" y="10" width="168" height="3" rx="1" fill="#9C27B0" opacity="0.6"/>
  <rect x="12" y="105" width="168" height="3" rx="1" fill="#9C27B0" opacity="0.6"/>
  <rect x="150" y="16" width="24" height="14" rx="2" fill="#4B5563" filter="url(#shadow)"/>
  <rect x="152" y="18" width="20" height="10" rx="1" fill="#6B7280" filter="url(#shadow)"/>
  <circle cx="162" cy="23" r="3" fill="#4B5563"/>
  <circle cx="162" cy="23" r="2" fill="none" stroke="#9CA3AF" stroke-width="0.5"/>
  <rect x="82" y="18" width="28" height="16" rx="3" fill="#B8D4E8"/>
  <rect x="84" y="20" width="24" height="12" rx="2" fill="#B8D4E8" opacity="0.5"/>
  <rect x="38" y="50" width="24" height="28" rx="3" fill="#4B5563"/>
  <rect x="40" y="52" width="20" height="24" rx="2" fill="#8B4513"/>
  <path d="M 44 48 Q 44 42 46 42" stroke="#6B7280" stroke-width="1.5" fill="none" stroke-linecap="round" opacity="0.6"/>
  <path d="M 50 48 Q 50 40 52 40" stroke="#6B7280" stroke-width="1.5" fill="none" stroke-linecap="round" opacity="0.6"/>
  <path d="M 56 48 Q 56 42 58 42" stroke="#6B7280" stroke-width="1.5" fill="none" stroke-linecap="round" opacity="0.6"/>
  <path d="M 62 58 Q 68 58 68 66 Q 68 74 62 74" stroke="#8B4513" stroke-width="2" fill="none"/>
  <line x1="96" y1="40" x2="96" y2="92" stroke="#4B5563" stroke-width="1.5" opacity="0.5"/>
  <rect x="118" y="58" width="48" height="20" rx="4" fill="#9C27B0"/>
  <rect x="120" y="60" width="44" height="16" rx="3" fill="#7C3AED"/>
  <rect x="124" y="63" width="12" height="10" rx="2" fill="#9C27B0" opacity="0.7"/>
  <rect x="140" y="63" width="12" height="10" rx="2" fill="#9C27B0" opacity="0.7"/>
  <rect x="156" y="63" width="12" height="10" rx="2" fill="#9C27B0" opacity="0.7"/>
  <rect x="116" y="62" width="4" height="12" rx="1" fill="#9C27B0"/>
  <rect x="166" y="62" width="4" height="12" rx="1" fill="#9C27B0"/>
</svg>
