<svg xmlns="http://www.w3.org/2000/svg" width="128" height="128" viewBox="0 0 128 128">
  <defs>
    <filter id="shadow" x="-20%" y="-20%" width="140%" height="140%">
      <feDropShadow dx="0" dy="2" stdDeviation="2" flood-color="#000" flood-opacity="0.12"/>
    </filter>
    <filter id="glow" x="-50%" y="-50%" width="200%" height="200%">
      <feGaussianBlur stdDeviation="3" result="blur"/>
      <feMerge>
        <feMergeNode in="blur"/>
        <feMergeNode in="SourceGraphic"/>
      </feMerge>
    </filter>
    <linearGradient id="amenity_roof" x1="0%" y1="0%" x2="0%" y2="100%">
      <stop offset="0%" style="stop-color:#9CA3AF;stop-opacity:1"/>
      <stop offset="100%" style="stop-color:#6B7280;stop-opacity:1"/>
    </linearGradient>
  </defs>
  <ellipse cx="64" cy="120" rx="56" ry="6" fill="#000000" opacity="0.12"/>
  <rect x="8" y="8" width="112" height="104" rx="6" fill="#4B5563" filter="url(#shadow)"/>
  <rect x="10" y="8" width="108" height="100" rx="5" fill="url(#amenity_roof)"/>
  <rect x="12" y="10" width="104" height="3" rx="1" fill="#2196F3" opacity="0.6"/>
  <rect x="12" y="105" width="104" height="3" rx="1" fill="#2196F3" opacity="0.6"/>
  <rect x="92" y="16" width="20" height="14" rx="2" fill="#4B5563" filter="url(#shadow)"/>
  <rect x="94" y="18" width="16" height="10" rx="1" fill="#6B7280" filter="url(#shadow)"/>
  <circle cx="102" cy="23" r="3" fill="#4B5563"/>
  <circle cx="102" cy="23" r="2" fill="none" stroke="#9CA3AF" stroke-width="0.5"/>
  <path d="M 44 45 A 20 20 0 0 1 84 45" fill="none" stroke="#2196F3" stroke-width="3" stroke-linecap="round"/>
  <path d="M 50 52 A 14 14 0 0 1 78 52" fill="none" stroke="#2196F3" stroke-width="2.5" stroke-linecap="round"/>
  <path d="M 56 59 A 8 8 0 0 1 72 59" fill="none" stroke="#2196F3" stroke-width="2" stroke-linecap="round"/>
  <circle cx="64" cy="66" r="3" fill="#2196F3"/>
  <line x1="20" y1="76" x2="108" y2="76" stroke="#4B5563" stroke-width="1" opacity="0.5"/>
  <circle cx="48" cy="86" r="4" fill="#4B5563"/>
  <rect x="46" y="92" width="4" height="10" rx="1" fill="#4B5563"/>
  <circle cx="80" cy="86" r="4" fill="#4B5563"/>
  <path d="M 75 92 L 75 102 L 85 102 L 85 92 L 82 92 L 82 96 L 78 96 L 78 92 Z" fill="#4B5563"/>
</svg>
