<svg xmlns="http://www.w3.org/2000/svg" width="64" height="48" viewBox="0 0 64 48">
  <defs>
    <filter id="shadow" x="-20%" y="-20%" width="140%" height="140%">
      <feDropShadow dx="0" dy="2" stdDeviation="2" flood-color="#000" flood-opacity="0.12"/>
    </filter>
    <filter id="glow" x="-50%" y="-50%" width="200%" height="200%">
      <feGaussianBlur stdDeviation="3" result="blur"/>
      <feMerge>
        <feMergeNode in="blur"/>
        <feMergeNode in="SourceGraphic"/>
      </feMerge>
    </filter>
    <linearGradient id="xfmr_body" x1="0%" y1="0%" x2="100%" y2="100%">
      <stop offset="0%" style="stop-color:#9CA3AF;stop-opacity:1"/>
      <stop offset="40%" style="stop-color:#6B7280;stop-opacity:1"/>
      <stop offset="100%" style="stop-color:#4B5563;stop-opacity:1"/>
    </linearGradient>
    <radialGradient id="xfmr_heat" cx="50%" cy="50%" r="70%">
      <stop offset="0%" style="stop-color:#F44336;stop-opacity:0.25"/>
      <stop offset="100%" style="stop-color:#F44336;stop-opacity:0"/>
    </radialGradient>
    <radialGradient id="xfmr_status" cx="30%" cy="30%" r="70%">
      <stop offset="0%" style="stop-color:#FFE082;stop-opacity:1"/>
      <stop offset="100%" style="stop-color:#FFC107;stop-opacity:1"/>
    </radialGradient>
  </defs>
  <ellipse cx="32" cy="44" rx="28" ry="4" fill="#000000" opacity="0.12"/>
  <rect x="2" y="2" width="60" height="44" rx="6" fill="url(#xfmr_heat)"/>
  <rect x="1" y="1" width="62" height="46" rx="7" fill="#FFC107" filter="url(#shadow)"/>
  <rect x="3" y="2" width="58" height="43" rx="5" fill="url(#xfmr_body)"/>
  <rect x="6" y="3" width="52" height="2" rx="1" fill="#D1D5DB" opacity="0.5"/>
  <rect x="6" y="8" width="26" height="30" rx="3" fill="#4B5563"/>
  <rect x="8" y="11" width="22" height="4" rx="1" fill="#6B7280"/>
  <rect x="8" y="11" width="22" height="1.5" rx="0.5" fill="#9CA3AF" opacity="0.4"/>
  <rect x="8" y="14" width="22" height="1" fill="#4B5563" opacity="0.6"/>
  <rect x="8" y="17" width="22" height="4" rx="1" fill="#6B7280"/>
  <rect x="8" y="17" width="22" height="1.5" rx="0.5" fill="#9CA3AF" opacity="0.4"/>
  <rect x="8" y="20" width="22" height="1" fill="#4B5563" opacity="0.6"/>
  <rect x="8" y="23" width="22" height="4" rx="1" fill="#6B7280"/>
  <rect x="8" y="23" width="22" height="1.5" rx="0.5" fill="#9CA3AF" opacity="0.4"/>
  <rect x="8" y="26" width="22" height="1" fill="#4B5563" opacity="0.6"/>
  <rect x="8" y="29" width="22" height="4" rx="1" fill="#6B7280"/>
  <rect x="8" y="29" width="22" height="1.5" rx="0.5" fill="#9CA3AF" opacity="0.4"/>
  <rect x="8" y="32" width="22" height="1" fill="#4B5563" opacity="0.6"/>
  <rect x="8" y="35" width="22" height="4" rx="1" fill="#6B7280"/>
  <rect x="8" y="35" width="22" height="1.5" rx="0.5" fill="#9CA3AF" opacity="0.4"/>
  <rect x="8" y="38" width="22" height="1" fill="#4B5563" opacity="0.6"/>
  <rect x="36" y="8" width="22" height="30" rx="3" fill="#4B5563"/>
  <rect x="38" y="10" width="18" height="26" rx="2" fill="#6B7280"/>
  <rect x="40" y="11" width="14" height="10" rx="1" fill="#FFC107"/>
  <path d="M47 12.5 L52 20 L42 20 Z" fill="#000000" opacity="0.75"/>
  <line x1="47" y1="14" x2="47" y2="17" stroke="#000000" stroke-width="1.5" opacity="0.75"/>
  <circle cx="47" cy="18.5" r="0.8" fill="#000000" opacity="0.75"/>
  <circle cx="47" cy="27" r="6" fill="#1F2937"/>
  <circle cx="47" cy="27" r="5" fill="none" stroke="#9CA3AF" stroke-width="1"/>
  <line x1="43" y1="27" x2="44" y2="27" stroke="#9CA3AF" stroke-width="0.5"/>
  <line x1="50" y1="27" x2="51" y2="27" stroke="#9CA3AF" stroke-width="0.5"/>
  <line x1="47" y1="23" x2="47" y2="24" stroke="#9CA3AF" stroke-width="0.5"/>
  <line x1="47" y1="27" x2="47" y2="22" stroke="#FFC107" stroke-width="2"/>
  <circle cx="47" cy="27" r="1.5" fill="#FFC107"/>
  <circle cx="52" cy="38" r="5" fill="#FFC107"/>
  <circle cx="52" cy="38" r="5" fill="url(#xfmr_status)"/>
  <circle cx="50" cy="36" r="1.5" fill="#FFFFFF" opacity="0.5"/>
  <circle cx="16" cy="5" r="4" fill="#4B5563"/>
  <circle cx="16" cy="5" r="2.5" fill="#6B7280"/>
  <circle cx="28" cy="5" r="4" fill="#4B5563"/>
  <circle cx="28" cy="5" r="2.5" fill="#6B7280"/>
</svg>
