<svg xmlns="http://www.w3.org/2000/svg" width="192" height="48" viewBox="0 0 192 48">
  <defs>
    <filter id="shadow" x="-20%" y="-20%" width="140%" height="140%">
      <feDropShadow dx="0" dy="2" stdDeviation="2" flood-color="#000" flood-opacity="0.12"/>
    </filter>
    <filter id="glow" x="-50%" y="-50%" width="200%" height="200%">
      <feGaussianBlur stdDeviation="3" result="blur"/>
      <feMerge>
        <feMergeNode in="blur"/>
        <feMergeNode in="SourceGraphic"/>
      </feMerge>
    </filter>
    <radialGradient id="urgent_center" cx="50%" cy="50%" r="50%">
      <stop offset="0%" style="stop-color:#E57373;stop-opacity:0.8"/>
      <stop offset="100%" style="stop-color:#F44336;stop-opacity:0"/>
    </radialGradient>
  </defs>
  <circle cx="24" cy="24" r="8" fill="url(#urgent_center)"/>
  <circle cx="24" cy="24" r="12" fill="none" stroke="#F44336" stroke-width="3" opacity="0.9"/>
  <circle cx="24" cy="24" r="4" fill="#E57373"/>
  <circle cx="72" cy="24" r="10" fill="url(#urgent_center)"/>
  <circle cx="72" cy="24" r="14" fill="none" stroke="#F44336" stroke-width="3" opacity="0.8"/>
  <circle cx="72" cy="24" r="20" fill="none" stroke="#F44336" stroke-width="2" opacity="0.4"/>
  <circle cx="72" cy="24" r="5" fill="#E57373"/>
  <circle cx="120" cy="24" r="12" fill="url(#urgent_center)"/>
  <circle cx="120" cy="24" r="16" fill="none" stroke="#F44336" stroke-width="3" opacity="0.7"/>
  <circle cx="120" cy="24" r="22" fill="none" stroke="#E57373" stroke-width="2" opacity="0.3"/>
  <circle cx="120" cy="24" r="6" fill="#E57373"/>
  <rect x="118" y="20" width="4" height="6" rx="1" fill="#FFFFFF" opacity="0.8"/>
  <circle cx="120" cy="28" r="1.5" fill="#FFFFFF" opacity="0.8"/>
  <circle cx="168" cy="24" r="14" fill="url(#urgent_center)" opacity="0.6"/>
  <circle cx="168" cy="24" r="18" fill="none" stroke="#F44336" stroke-width="2" opacity="0.5"/>
  <circle cx="168" cy="24" r="23" fill="none" stroke="#E57373" stroke-width="1" opacity="0.2"/>
  <circle cx="168" cy="24" r="7" fill="#F44336"/>
  <circle cx="168" cy="24" r="4" fill="#E57373"/>
</svg>
