<svg xmlns="http://www.w3.org/2000/svg" width="256" height="64" viewBox="0 0 256 64">
  <defs>
    <filter id="shadow" x="-20%" y="-20%" width="140%" height="140%">
      <feDropShadow dx="0" dy="2" stdDeviation="2" flood-color="#000" flood-opacity="0.12"/>
    </filter>
    <filter id="glow" x="-50%" y="-50%" width="200%" height="200%">
      <feGaussianBlur stdDeviation="3" result="blur"/>
      <feMerge>
        <feMergeNode in="blur"/>
        <feMergeNode in="SourceGraphic"/>
      </feMerge>
    </filter>
    <linearGradient id="sel_glow" x1="0%" y1="0%" x2="100%" y2="100%">
      <stop offset="0%" style="stop-color:#64B5F6;stop-opacity:0.8"/>
      <stop offset="100%" style="stop-color:#2196F3;stop-opacity:0.4"/>
    </linearGradient>
  </defs>
  <path d="M4 16 L4 4 L16 4" stroke="#2196F3" stroke-width="2" fill="none" stroke-linecap="round" opacity="0.7"/>
  <path d="M48 4 L60 4 L60 16" stroke="#2196F3" stroke-width="2" fill="none" stroke-linecap="round" opacity="0.7"/>
  <path d="M60 48 L60 60 L48 60" stroke="#2196F3" stroke-width="2" fill="none" stroke-linecap="round" opacity="0.7"/>
  <path d="M16 60 L4 60 L4 48" stroke="#2196F3" stroke-width="2" fill="none" stroke-linecap="round" opacity="0.7"/>
  <rect x="4" y="4" width="56" height="56" rx="4" fill="none" stroke="#64B5F6" stroke-width="1" stroke-dasharray="8 4" stroke-dashoffset="0" opacity="0.35"/>
  <path d="M68 16 L68 4 L80 4" stroke="#2196F3" stroke-width="3" fill="none" stroke-linecap="round" opacity="0.85"/>
  <path d="M112 4 L124 4 L124 16" stroke="#2196F3" stroke-width="3" fill="none" stroke-linecap="round" opacity="0.85"/>
  <path d="M124 48 L124 60 L112 60" stroke="#2196F3" stroke-width="3" fill="none" stroke-linecap="round" opacity="0.85"/>
  <path d="M80 60 L68 60 L68 48" stroke="#2196F3" stroke-width="3" fill="none" stroke-linecap="round" opacity="0.85"/>
  <rect x="68" y="4" width="56" height="56" rx="4" fill="none" stroke="#64B5F6" stroke-width="1" stroke-dasharray="8 4" stroke-dashoffset="3" opacity="0.425"/>
  <rect x="132" y="8" width="48" height="48" rx="4" fill="url(#sel_glow)" opacity="0.15"/>
  <path d="M132 16 L132 4 L144 4" stroke="#2196F3" stroke-width="4" fill="none" stroke-linecap="round" opacity="1.0"/>
  <path d="M176 4 L188 4 L188 16" stroke="#2196F3" stroke-width="4" fill="none" stroke-linecap="round" opacity="1.0"/>
  <path d="M188 48 L188 60 L176 60" stroke="#2196F3" stroke-width="4" fill="none" stroke-linecap="round" opacity="1.0"/>
  <path d="M144 60 L132 60 L132 48" stroke="#2196F3" stroke-width="4" fill="none" stroke-linecap="round" opacity="1.0"/>
  <rect x="132" y="4" width="56" height="56" rx="4" fill="none" stroke="#64B5F6" stroke-width="1" stroke-dasharray="8 4" stroke-dashoffset="6" opacity="0.5"/>
  <rect x="196" y="8" width="48" height="48" rx="4" fill="url(#sel_glow)" opacity="0.2"/>
  <path d="M196 18 L196 4 L210 4" stroke="#2196F3" stroke-width="4" fill="none" stroke-linecap="round" opacity="1.0"/>
  <path d="M238 4 L252 4 L252 18" stroke="#2196F3" stroke-width="4" fill="none" stroke-linecap="round" opacity="1.0"/>
  <path d="M252 46 L252 60 L238 60" stroke="#2196F3" stroke-width="4" fill="none" stroke-linecap="round" opacity="1.0"/>
  <path d="M210 60 L196 60 L196 46" stroke="#2196F3" stroke-width="4" fill="none" stroke-linecap="round" opacity="1.0"/>
  <rect x="196" y="4" width="56" height="56" rx="4" fill="none" stroke="#64B5F6" stroke-width="1" stroke-dasharray="8 4" stroke-dashoffset="9" opacity="0.5"/>
  <circle cx="196" cy="8" r="4" fill="#64B5F6" opacity="0.6"/>
  <circle cx="252" cy="8" r="4" fill="#64B5F6" opacity="0.6"/>
  <circle cx="252" cy="60" r="4" fill="#64B5F6" opacity="0.6"/>
  <circle cx="196" cy="60" r="4" fill="#64B5F6" opacity="0.6"/>
</svg>
