<svg xmlns="http://www.w3.org/2000/svg" width="64" height="128" viewBox="0 0 64 128">
  <defs>
    <filter id="shadow" x="-20%" y="-20%" width="140%" height="140%">
      <feDropShadow dx="0" dy="2" stdDeviation="2" flood-color="#000" flood-opacity="0.12"/>
    </filter>
    <filter id="glow" x="-50%" y="-50%" width="200%" height="200%">
      <feGaussianBlur stdDeviation="3" result="blur"/>
      <feMerge>
        <feMergeNode in="blur"/>
        <feMergeNode in="SourceGraphic"/>
      </feMerge>
    </filter>
    <linearGradient id="dcfcbody" x1="0%" y1="0%" x2="100%" y2="100%">
      <stop offset="0%" style="stop-color:#9CA3AF;stop-opacity:1"/>
      <stop offset="50%" style="stop-color:#6B7280;stop-opacity:1"/>
      <stop offset="100%" style="stop-color:#4B5563;stop-opacity:1"/>
    </linearGradient>
    <radialGradient id="dcfcglow" cx="50%" cy="50%" r="50%">
      <stop offset="0%" style="stop-color:#9CA3AF;stop-opacity:1"/>
      <stop offset="60%" style="stop-color:#6B7280;stop-opacity:1"/>
      <stop offset="100%" style="stop-color:#4B5563;stop-opacity:0.7"/>
    </radialGradient>
    <linearGradient id="dcfcscreen" x1="0%" y1="0%" x2="0%" y2="100%">
      <stop offset="0%" style="stop-color:#374151;stop-opacity:1"/>
      <stop offset="100%" style="stop-color:#1F2937;stop-opacity:1"/>
    </linearGradient>
  </defs>
  <rect x="12" y="116" width="40" height="10" rx="4" fill="#4B5563" filter="url(#shadow)"/>
  <rect x="14" y="118" width="36" height="2" rx="1" fill="#6B7280" opacity="0.5"/>
  <rect x="6" y="4" width="52" height="114" rx="8" fill="#4B5563" filter="url(#shadow)"/>
  <rect x="8" y="2" width="48" height="114" rx="7" fill="url(#dcfcbody)"/>
  <rect x="12" y="5" width="40" height="4" rx="2" fill="#D1D5DB" opacity="0.5"/>
  <circle cx="32" cy="14" r="10" fill="url(#dcfcglow)" filter="url(#glow)"/>
  <circle cx="32" cy="14" r="7" fill="#6B7280"/>
  <circle cx="30" cy="12" r="3" fill="#9CA3AF" opacity="0.7"/>
  <circle cx="32" cy="14" r="2" fill="#FFFFFF" opacity="0.4"/>
  <rect x="12" y="26" width="40" height="28" rx="4" fill="#4B5563"/>
  <rect x="14" y="28" width="36" height="24" rx="3" fill="url(#dcfcscreen)"/>
  <rect x="18" y="38" width="28" height="3" fill="#81C784"/>
  <rect x="22" y="44" width="20" height="2" fill="#4CAF50"/>
  <rect x="14" y="58" width="36" height="2" rx="1" fill="#4B5563"/>
  <rect x="14" y="62" width="36" height="2" rx="1" fill="#4B5563"/>
  <rect x="14" y="66" width="36" height="2" rx="1" fill="#4B5563"/>
  <rect x="14" y="70" width="36" height="2" rx="1" fill="#4B5563"/>
  <rect x="12" y="72" width="18" height="20" rx="3" fill="#4B5563"/>
  <rect x="14" y="74" width="14" height="16" rx="2" fill="#111827"/>
  <circle cx="21" cy="80" r="4" fill="#9CA3AF"/>
  <circle cx="21" cy="80" r="2" fill="#111827"/>
  <rect x="17" y="84" width="8" height="4" rx="1" fill="#9CA3AF" filter="url(#shadow)"/>
  <rect x="34" y="72" width="18" height="20" rx="3" fill="#4B5563"/>
  <rect x="36" y="74" width="14" height="16" rx="2" fill="#111827"/>
  <circle cx="43" cy="82" r="5" fill="#9CA3AF"/>
  <circle cx="43" cy="82" r="3" fill="#111827"/>
  <rect x="2" y="70" width="6" height="24" rx="2" fill="#4B5563"/>
  <path d="M5 72 Q1 82 5 92" stroke="#6B7280" stroke-width="3" fill="none" stroke-linecap="round"/>
  <rect x="56" y="70" width="6" height="24" rx="2" fill="#4B5563"/>
  <path d="M59 72 Q63 82 59 92" stroke="#6B7280" stroke-width="3" fill="none" stroke-linecap="round"/>
  <rect x="14" y="96" width="36" height="2" rx="1" fill="#4B5563"/>
  <rect x="14" y="100" width="36" height="2" rx="1" fill="#4B5563"/>
  <rect x="14" y="104" width="36" height="2" rx="1" fill="#4B5563"/>
  <rect x="6" y="26" width="4" height="84" rx="2" fill="#6B7280"/>
  <rect x="54" y="26" width="4" height="84" rx="2" fill="#6B7280"/>
  <rect x="16" y="108" width="32" height="6" rx="2" fill="#4B5563"/>
  <rect x="20" y="110" width="24" height="2" rx="1" fill="#9CA3AF" opacity="0.4"/>
</svg>
