<svg xmlns="http://www.w3.org/2000/svg" width="72" height="140" viewBox="0 0 72 140">
  <defs>
    <filter id="shadow" x="-20%" y="-20%" width="140%" height="140%">
      <feDropShadow dx="0" dy="2" stdDeviation="2" flood-color="#000" flood-opacity="0.12"/>
    </filter>
    <filter id="glow" x="-50%" y="-50%" width="200%" height="200%">
      <feGaussianBlur stdDeviation="3" result="blur"/>
      <feMerge>
        <feMergeNode in="blur"/>
        <feMergeNode in="SourceGraphic"/>
      </feMerge>
    </filter>
    <linearGradient id="dcfc350body" x1="0%" y1="0%" x2="100%" y2="100%">
      <stop offset="0%" style="stop-color:#F8FAFC;stop-opacity:1"/>
      <stop offset="40%" style="stop-color:#E2E8F0;stop-opacity:1"/>
      <stop offset="100%" style="stop-color:#CBD5E1;stop-opacity:1"/>
    </linearGradient>
    <radialGradient id="dcfc350glow" cx="50%" cy="50%" r="50%">
      <stop offset="0%" style="stop-color:#FFCDD2;stop-opacity:1"/>
      <stop offset="60%" style="stop-color:#F44336;stop-opacity:1"/>
      <stop offset="100%" style="stop-color:#D32F2F;stop-opacity:0.7"/>
    </radialGradient>
    <linearGradient id="dcfc350screen" x1="0%" y1="0%" x2="0%" y2="100%">
      <stop offset="0%" style="stop-color:#1E1B4B;stop-opacity:1"/>
      <stop offset="100%" style="stop-color:#0F0A2A;stop-opacity:1"/>
    </linearGradient>
    <linearGradient id="dcfc350accent" x1="0%" y1="0%" x2="0%" y2="100%">
      <stop offset="0%" style="stop-color:#E57373;stop-opacity:1"/>
      <stop offset="100%" style="stop-color:#D32F2F;stop-opacity:1"/>
    </linearGradient>
  </defs>
  <path d="M18 132 L54 132 L58 138 L14 138 Z" fill="#64748B" filter="url(#shadow)"/>
  <rect x="16" y="134" width="40" height="4" rx="1" fill="#94A3B8"/>
  <path d="M12 8 L60 8 L64 130 L8 130 Z" fill="#94A3B8" filter="url(#shadow)"/>
  <path d="M14 6 L58 6 L62 128 L10 128 Z" fill="url(#dcfc350body)"/>
  <path d="M14 6 L58 6 L56 18 L16 18 Z" fill="url(#dcfc350accent)"/>
  <circle cx="26" cy="12" r="4" fill="#D32F2F"/>
  <circle cx="26" cy="12" r="3" fill="#E57373" filter="url(#glow)"/>
  <circle cx="46" cy="12" r="4" fill="#D32F2F"/>
  <circle cx="46" cy="12" r="3" fill="#E57373" filter="url(#glow)"/>
  <rect x="14" y="22" width="44" height="38" rx="4" fill="#334155"/>
  <rect x="16" y="24" width="40" height="34" rx="3" fill="url(#dcfc350screen)"/>
  <path d="M26 32 L46 50 M46 32 L26 50" stroke="#F44336" stroke-width="4" fill="none"/>
  <rect x="22" y="52" width="28" height="3" rx="1" fill="#F44336" opacity="0.6"/>
  <rect x="16" y="64" width="40" height="1.5" rx="0.5" fill="#94A3B8"/>
  <rect x="16" y="67" width="40" height="1.5" rx="0.5" fill="#94A3B8"/>
  <rect x="16" y="70" width="40" height="1.5" rx="0.5" fill="#94A3B8"/>
  <rect x="16" y="73" width="40" height="1.5" rx="0.5" fill="#94A3B8"/>
  <rect x="16" y="76" width="40" height="1.5" rx="0.5" fill="#94A3B8"/>
  <rect x="16" y="79" width="40" height="1.5" rx="0.5" fill="#94A3B8"/>
  <rect x="16" y="82" width="40" height="1.5" rx="0.5" fill="#94A3B8"/>
  <rect x="16" y="85" width="40" height="1.5" rx="0.5" fill="#94A3B8"/>
  <rect x="12" y="90" width="22" height="28" rx="4" fill="#64748B"/>
  <rect x="14" y="92" width="18" height="24" rx="3" fill="#1E293B"/>
  <circle cx="23" cy="102" r="6" fill="#94A3B8"/>
  <circle cx="23" cy="102" r="4" fill="#1E293B"/>
  <rect x="18" y="108" width="10" height="6" rx="2" fill="#94A3B8"/>
  <rect x="38" y="90" width="22" height="28" rx="4" fill="#64748B"/>
  <rect x="40" y="92" width="18" height="24" rx="3" fill="#1E293B"/>
  <circle cx="49" cy="104" r="7" fill="#94A3B8"/>
  <circle cx="49" cy="104" r="5" fill="#1E293B"/>
  <rect x="2" y="88" width="8" height="32" rx="3" fill="#64748B"/>
  <path d="M6 92 Q0 106 6 118" stroke="#94A3B8" stroke-width="5" fill="none" stroke-linecap="round"/>
  <rect x="62" y="88" width="8" height="32" rx="3" fill="#64748B"/>
  <path d="M66 92 Q72 106 66 118" stroke="#94A3B8" stroke-width="5" fill="none" stroke-linecap="round"/>
  <rect x="10" y="18" width="4" height="110" rx="2" fill="url(#dcfc350accent)"/>
  <rect x="58" y="18" width="4" height="110" rx="2" fill="url(#dcfc350accent)"/>
  <rect x="28" y="122" width="16" height="4" rx="2" fill="#F44336"/>
</svg>
