<svg xmlns="http://www.w3.org/2000/svg" width="52" height="100" viewBox="0 0 52 100">
  <defs>
    <filter id="shadow" x="-20%" y="-20%" width="140%" height="140%">
      <feDropShadow dx="0" dy="2" stdDeviation="2" flood-color="#000" flood-opacity="0.12"/>
    </filter>
    <filter id="glow" x="-50%" y="-50%" width="200%" height="200%">
      <feGaussianBlur stdDeviation="3" result="blur"/>
      <feMerge>
        <feMergeNode in="blur"/>
        <feMergeNode in="SourceGraphic"/>
      </feMerge>
    </filter>
    <linearGradient id="body_sedan" x1="0%" y1="0%" x2="100%" y2="0%">
      <stop offset="0%" style="stop-color:#9CA3AF;stop-opacity:1"/>
      <stop offset="20%" style="stop-color:#E5E7EB;stop-opacity:1"/>
      <stop offset="80%" style="stop-color:#E5E7EB;stop-opacity:1"/>
      <stop offset="100%" style="stop-color:#9CA3AF;stop-opacity:1"/>
    </linearGradient>
    <linearGradient id="glass_sedan" x1="0%" y1="0%" x2="0%" y2="100%">
      <stop offset="0%" style="stop-color:#2563EB;stop-opacity:0.6"/>
      <stop offset="100%" style="stop-color:#1E3A5F;stop-opacity:1"/>
    </linearGradient>
  </defs>
  <path d="M6 14
            Q4 8 26 4
            Q48 8 46 14
            L48 28
            Q50 32 50 42
            L50 72
            Q50 82 48 86
            L46 94
            Q44 98 26 98
            Q8 98 6 94
            L4 86
            Q2 82 2 72
            L2 42
            Q2 32 4 28
            L6 14 Z" fill="#000000" opacity="0.25" transform="translate(2, 3)"/>
  <path d="M6 14
            Q4 8 26 4
            Q48 8 46 14
            L48 28
            Q50 32 50 42
            L50 72
            Q50 82 48 86
            L46 94
            Q44 98 26 98
            Q8 98 6 94
            L4 86
            Q2 82 2 72
            L2 42
            Q2 32 4 28
            L6 14 Z" fill="url(#body_sedan)"/>
  <path d="M6 14
            Q4 8 26 4
            Q48 8 46 14
            L48 28
            Q50 32 50 42
            L50 72
            Q50 82 48 86
            L46 94
            Q44 98 26 98
            Q8 98 6 94
            L4 86
            Q2 82 2 72
            L2 42
            Q2 32 4 28
            L6 14 Z" fill="none" stroke="#111827" stroke-width="2"/>
  <rect x="8" y="8" width="36" height="16" rx="4" fill="#E5E7EB" opacity="0.3"/>
  <line x1="12" y1="24" x2="40" y2="24" stroke="#9CA3AF" stroke-width="1.5" opacity="0.5"/>
  <path d="M14 28 
        L38 28 
        L42 38 
        L10 38 Z" 
        fill="url(#glass_sedan)"/>
  <path d="M14 28 
        L38 28 
        L42 38 
        L10 38 Z" 
        fill="none" stroke="#111827" stroke-width="1"/>
  <rect x="16" y="30" width="8" height="6" rx="1" fill="#FFFFFF" opacity="0.2"/>
  <rect x="9" y="40" width="34" height="28" rx="3" fill="#9CA3AF" opacity="0.2"/>
  <rect x="9" y="40" width="34" height="28" rx="3" fill="none" stroke="#111827" stroke-width="1" opacity="0.5"/>
  <path d="M11 70 
            L41 70 
            L38 72 
            L14 72 Z" 
            fill="url(#glass_sedan)"/>
  <path d="M11 70 
            L41 70 
            L38 72 
            L14 72 Z" 
            fill="none" stroke="#111827" stroke-width="1"/>
  <line x1="13" y1="74" x2="39" y2="74" stroke="#9CA3AF" stroke-width="1.5" opacity="0.5"/>
  <ellipse cx="12" cy="10" rx="4" ry="2" fill="#F3F4F6"/>
  <ellipse cx="40" cy="10" rx="4" ry="2" fill="#F3F4F6"/>
  <ellipse cx="12" cy="10" rx="3" ry="1" fill="#FEF3C7"/>
  <ellipse cx="40" cy="10" rx="3" ry="1" fill="#FEF3C7"/>
  <rect x="8" y="90" width="10" height="4" rx="2" fill="#DC2626"/>
  <rect x="34" y="90" width="10" height="4" rx="2" fill="#DC2626"/>
  <rect x="9" y="91" width="8" height="2" rx="1" fill="#FCA5A5" opacity="0.5"/>
  <rect x="35" y="91" width="8" height="2" rx="1" fill="#FCA5A5" opacity="0.5"/>
  <path d="M12 6 Q26 4 40 6" stroke="#FFFFFF" stroke-width="1" fill="none" opacity="0.3"/>
  <rect x="2" y="78" width="4" height="6" rx="1" fill="#10B981"/>
  <rect x="3" y="79" width="2" height="4" rx="0.5" fill="#34D399"/>
</svg>
