<svg xmlns="http://www.w3.org/2000/svg" width="48" height="80" viewBox="0 0 48 80">
  <defs>
    <filter id="shadow" x="-20%" y="-20%" width="140%" height="140%">
      <feDropShadow dx="0" dy="2" stdDeviation="2" flood-color="#000" flood-opacity="0.12"/>
    </filter>
    <filter id="glow" x="-50%" y="-50%" width="200%" height="200%">
      <feGaussianBlur stdDeviation="3" result="blur"/>
      <feMerge>
        <feMergeNode in="blur"/>
        <feMergeNode in="SourceGraphic"/>
      </feMerge>
    </filter>
    <linearGradient id="body_compact" x1="0%" y1="0%" x2="100%" y2="0%">
      <stop offset="0%" style="stop-color:#1D4ED8;stop-opacity:1"/>
      <stop offset="20%" style="stop-color:#3B82F6;stop-opacity:1"/>
      <stop offset="80%" style="stop-color:#3B82F6;stop-opacity:1"/>
      <stop offset="100%" style="stop-color:#1D4ED8;stop-opacity:1"/>
    </linearGradient>
    <linearGradient id="glass_compact" x1="0%" y1="0%" x2="0%" y2="100%">
      <stop offset="0%" style="stop-color:#2563EB;stop-opacity:0.6"/>
      <stop offset="100%" style="stop-color:#1E3A5F;stop-opacity:1"/>
    </linearGradient>
  </defs>
  <path d="M6 12 
            Q4 6 24 4 
            Q44 6 42 12
            L44 24
            Q46 28 46 36
            L46 56
            Q46 64 44 68
            L42 76
            Q40 78 24 78
            Q8 78 6 76
            L4 68
            Q2 64 2 56
            L2 36
            Q2 28 4 24
            L6 12 Z" fill="#000000" opacity="0.25" transform="translate(2, 3)"/>
  <path d="M6 12 
            Q4 6 24 4 
            Q44 6 42 12
            L44 24
            Q46 28 46 36
            L46 56
            Q46 64 44 68
            L42 76
            Q40 78 24 78
            Q8 78 6 76
            L4 68
            Q2 64 2 56
            L2 36
            Q2 28 4 24
            L6 12 Z" fill="url(#body_compact)"/>
  <path d="M6 12 
            Q4 6 24 4 
            Q44 6 42 12
            L44 24
            Q46 28 46 36
            L46 56
            Q46 64 44 68
            L42 76
            Q40 78 24 78
            Q8 78 6 76
            L4 68
            Q2 64 2 56
            L2 36
            Q2 28 4 24
            L6 12 Z" fill="none" stroke="#111827" stroke-width="2"/>
  <rect x="8" y="8" width="32" height="10" rx="4" fill="#3B82F6" opacity="0.3"/>
  <line x1="12" y1="18" x2="36" y2="18" stroke="#1D4ED8" stroke-width="1.5" opacity="0.5"/>
  <path d="M14 22 
        L34 22 
        L38 32 
        L10 32 Z" 
        fill="url(#glass_compact)"/>
  <path d="M14 22 
        L34 22 
        L38 32 
        L10 32 Z" 
        fill="none" stroke="#111827" stroke-width="1"/>
  <rect x="16" y="24" width="6" height="6" rx="1" fill="#FFFFFF" opacity="0.2"/>
  <rect x="9" y="34" width="30" height="18" rx="3" fill="#1D4ED8" opacity="0.2"/>
  <rect x="9" y="34" width="30" height="18" rx="3" fill="none" stroke="#111827" stroke-width="1" opacity="0.5"/>
  <path d="M11 54 
            L37 54 
            L34 54 
            L14 54 Z" 
            fill="url(#glass_compact)"/>
  <path d="M11 54 
            L37 54 
            L34 54 
            L14 54 Z" 
            fill="none" stroke="#111827" stroke-width="1"/>
  <line x1="13" y1="56" x2="35" y2="56" stroke="#1D4ED8" stroke-width="1.5" opacity="0.5"/>
  <ellipse cx="12" cy="10" rx="4" ry="2" fill="#F3F4F6"/>
  <ellipse cx="36" cy="10" rx="4" ry="2" fill="#F3F4F6"/>
  <ellipse cx="12" cy="10" rx="3" ry="1" fill="#FEF3C7"/>
  <ellipse cx="36" cy="10" rx="3" ry="1" fill="#FEF3C7"/>
  <rect x="8" y="70" width="10" height="4" rx="2" fill="#DC2626"/>
  <rect x="30" y="70" width="10" height="4" rx="2" fill="#DC2626"/>
  <rect x="9" y="71" width="8" height="2" rx="1" fill="#FCA5A5" opacity="0.5"/>
  <rect x="31" y="71" width="8" height="2" rx="1" fill="#FCA5A5" opacity="0.5"/>
  <rect x="21" y="6" width="6" height="14" rx="1" fill="#FFFFFF" opacity="0.9"/>
  <rect x="21" y="60" width="6" height="10" rx="1" fill="#FFFFFF" opacity="0.9"/>
  <path d="M12 6 Q24 4 36 6" stroke="#FFFFFF" stroke-width="1" fill="none" opacity="0.3"/>
  <rect x="2" y="60" width="4" height="6" rx="1" fill="#10B981"/>
  <rect x="3" y="61" width="2" height="4" rx="0.5" fill="#34D399"/>
</svg>
