<svg xmlns="http://www.w3.org/2000/svg" width="56" height="90" viewBox="0 0 56 90">
  <defs>
    <filter id="shadow" x="-20%" y="-20%" width="140%" height="140%">
      <feDropShadow dx="0" dy="2" stdDeviation="2" flood-color="#000" flood-opacity="0.12"/>
    </filter>
    <filter id="glow" x="-50%" y="-50%" width="200%" height="200%">
      <feGaussianBlur stdDeviation="3" result="blur"/>
      <feMerge>
        <feMergeNode in="blur"/>
        <feMergeNode in="SourceGraphic"/>
      </feMerge>
    </filter>
    <linearGradient id="body_tractor" x1="0%" y1="0%" x2="100%" y2="0%">
      <stop offset="0%" style="stop-color:#166534;stop-opacity:1"/>
      <stop offset="20%" style="stop-color:#15803D;stop-opacity:1"/>
      <stop offset="80%" style="stop-color:#15803D;stop-opacity:1"/>
      <stop offset="100%" style="stop-color:#166534;stop-opacity:1"/>
    </linearGradient>
    <linearGradient id="glass_tractor" x1="0%" y1="0%" x2="0%" y2="100%">
      <stop offset="0%" style="stop-color:#2563EB;stop-opacity:0.6"/>
      <stop offset="100%" style="stop-color:#1E3A5F;stop-opacity:1"/>
    </linearGradient>
  </defs>
  <path d="M6 18
            Q4 12 28 8
            Q52 12 50 18
            L54 28
            Q55 32 55 38
            L55 62
            Q55 70 53 74
            L50 82
            Q46 86 28 88
            Q10 86 6 82
            L3 74
            Q1 70 1 62
            L1 38
            Q1 32 2 28
            L6 18 Z" fill="#000000" opacity="0.25" transform="translate(2, 3)"/>
  <path d="M6 18
            Q4 12 28 8
            Q52 12 50 18
            L54 28
            Q55 32 55 38
            L55 62
            Q55 70 53 74
            L50 82
            Q46 86 28 88
            Q10 86 6 82
            L3 74
            Q1 70 1 62
            L1 38
            Q1 32 2 28
            L6 18 Z" fill="url(#body_tractor)"/>
  <path d="M6 18
            Q4 12 28 8
            Q52 12 50 18
            L54 28
            Q55 32 55 38
            L55 62
            Q55 70 53 74
            L50 82
            Q46 86 28 88
            Q10 86 6 82
            L3 74
            Q1 70 1 62
            L1 38
            Q1 32 2 28
            L6 18 Z" fill="none" stroke="#111827" stroke-width="2"/>
  <rect x="8" y="8" width="40" height="16" rx="4" fill="#15803D" opacity="0.3"/>
  <line x1="12" y1="24" x2="44" y2="24" stroke="#166534" stroke-width="1.5" opacity="0.5"/>
  <path d="M14 28 
        L42 28 
        L46 36 
        L10 36 Z" 
        fill="url(#glass_tractor)"/>
  <path d="M14 28 
        L42 28 
        L46 36 
        L10 36 Z" 
        fill="none" stroke="#111827" stroke-width="1"/>
  <rect x="16" y="30" width="9" height="4" rx="1" fill="#FFFFFF" opacity="0.2"/>
  <rect x="9" y="38" width="38" height="20" rx="3" fill="#166534" opacity="0.2"/>
  <rect x="9" y="38" width="38" height="20" rx="3" fill="none" stroke="#111827" stroke-width="1" opacity="0.5"/>
  <rect x="9" y="12" width="38" height="14" rx="2" fill="#166534" opacity="0.6"/>
  <line x1="11" y1="14" x2="45" y2="14" stroke="#374151" stroke-width="1.5"/>
  <line x1="11" y1="18" x2="45" y2="18" stroke="#374151" stroke-width="1.5"/>
  <line x1="11" y1="22" x2="45" y2="22" stroke="#374151" stroke-width="1.5"/>
  <line x1="11" y1="26" x2="45" y2="26" stroke="#374151" stroke-width="1.5"/>
  <rect x="16" y="62" width="24" height="16" rx="2" fill="#166534" opacity="0.4"/>
  <rect x="16" y="62" width="24" height="16" rx="2" fill="none" stroke="#111827" stroke-width="1"/>
  <circle cx="28" cy="76" r="3" fill="#6B7280"/>
  <circle cx="28" cy="76" r="1.5" fill="#111827"/>
  <ellipse cx="8" cy="48" rx="6" ry="8" fill="#166534" opacity="0.3"/>
  <ellipse cx="48" cy="48" rx="6" ry="8" fill="#166534" opacity="0.3"/>
  <ellipse cx="12" cy="10" rx="4" ry="2" fill="#F3F4F6"/>
  <ellipse cx="44" cy="10" rx="4" ry="2" fill="#F3F4F6"/>
  <ellipse cx="12" cy="10" rx="3" ry="1" fill="#FEF3C7"/>
  <ellipse cx="44" cy="10" rx="3" ry="1" fill="#FEF3C7"/>
  <rect x="8" y="80" width="10" height="4" rx="2" fill="#DC2626"/>
  <rect x="38" y="80" width="10" height="4" rx="2" fill="#DC2626"/>
  <rect x="9" y="81" width="8" height="2" rx="1" fill="#FCA5A5" opacity="0.5"/>
  <rect x="39" y="81" width="8" height="2" rx="1" fill="#FCA5A5" opacity="0.5"/>
  <rect x="25" y="6" width="6" height="20" rx="1" fill="#FACC15" opacity="0.9"/>
  <rect x="25" y="66" width="6" height="14" rx="1" fill="#FACC15" opacity="0.9"/>
  <path d="M12 6 Q28 4 44 6" stroke="#FFFFFF" stroke-width="1" fill="none" opacity="0.3"/>
  <rect x="2" y="66" width="4" height="6" rx="1" fill="#10B981"/>
  <rect x="3" y="67" width="2" height="4" rx="0.5" fill="#34D399"/>
</svg>
