<svg xmlns="http://www.w3.org/2000/svg" width="64" height="150" viewBox="0 0 64 150">
  <defs>
    <filter id="shadow" x="-20%" y="-20%" width="140%" height="140%">
      <feDropShadow dx="0" dy="2" stdDeviation="2" flood-color="#000" flood-opacity="0.12"/>
    </filter>
    <filter id="glow" x="-50%" y="-50%" width="200%" height="200%">
      <feGaussianBlur stdDeviation="3" result="blur"/>
      <feMerge>
        <feMergeNode in="blur"/>
        <feMergeNode in="SourceGraphic"/>
      </feMerge>
    </filter>
    <linearGradient id="body_semi" x1="0%" y1="0%" x2="100%" y2="0%">
      <stop offset="0%" style="stop-color:#1E40AF;stop-opacity:1"/>
      <stop offset="20%" style="stop-color:#1E3A8A;stop-opacity:1"/>
      <stop offset="80%" style="stop-color:#1E3A8A;stop-opacity:1"/>
      <stop offset="100%" style="stop-color:#1E40AF;stop-opacity:1"/>
    </linearGradient>
    <linearGradient id="glass_semi" x1="0%" y1="0%" x2="0%" y2="100%">
      <stop offset="0%" style="stop-color:#2563EB;stop-opacity:0.6"/>
      <stop offset="100%" style="stop-color:#1E3A5F;stop-opacity:1"/>
    </linearGradient>
  </defs>
  <path d="M6 16
            Q4 10 32 6
            Q60 10 58 16
            L62 28
            Q63 32 63 38
            L63 52
            Q63 56 62 58
            L62 60
            Q63 62 63 66
            L63 130
            Q63 138 61 142
            L58 146
            Q54 148 32 148
            Q10 148 6 146
            L3 142
            Q1 138 1 130
            L1 66
            Q1 62 2 60
            L2 58
            Q1 56 1 52
            L1 38
            Q1 32 2 28
            L6 16 Z" fill="#000000" opacity="0.25" transform="translate(2, 3)"/>
  <path d="M6 16
            Q4 10 32 6
            Q60 10 58 16
            L62 28
            Q63 32 63 38
            L63 52
            Q63 56 62 58
            L62 60
            Q63 62 63 66
            L63 130
            Q63 138 61 142
            L58 146
            Q54 148 32 148
            Q10 148 6 146
            L3 142
            Q1 138 1 130
            L1 66
            Q1 62 2 60
            L2 58
            Q1 56 1 52
            L1 38
            Q1 32 2 28
            L6 16 Z" fill="url(#body_semi)"/>
  <path d="M6 16
            Q4 10 32 6
            Q60 10 58 16
            L62 28
            Q63 32 63 38
            L63 52
            Q63 56 62 58
            L62 60
            Q63 62 63 66
            L63 130
            Q63 138 61 142
            L58 146
            Q54 148 32 148
            Q10 148 6 146
            L3 142
            Q1 138 1 130
            L1 66
            Q1 62 2 60
            L2 58
            Q1 56 1 52
            L1 38
            Q1 32 2 28
            L6 16 Z" fill="none" stroke="#111827" stroke-width="2"/>
  <rect x="8" y="8" width="48" height="14" rx="4" fill="#1E3A8A" opacity="0.3"/>
  <line x1="12" y1="22" x2="52" y2="22" stroke="#1E40AF" stroke-width="1.5" opacity="0.5"/>
  <path d="M14 26 
        L50 26 
        L54 34 
        L10 34 Z" 
        fill="url(#glass_semi)"/>
  <path d="M14 26 
        L50 26 
        L54 34 
        L10 34 Z" 
        fill="none" stroke="#111827" stroke-width="1"/>
  <rect x="16" y="28" width="12" height="4" rx="1" fill="#FFFFFF" opacity="0.2"/>
  <rect x="9" y="36" width="46" height="18" rx="3" fill="#1E40AF" opacity="0.2"/>
  <rect x="9" y="36" width="46" height="18" rx="3" fill="none" stroke="#111827" stroke-width="1" opacity="0.5"/>
  <rect x="12" y="56" width="40" height="4" rx="1" fill="url(#glass_semi)"/>
  <rect x="12" y="56" width="40" height="4" rx="1" fill="none" stroke="#111827" stroke-width="1"/>
  <rect x="4" y="61" width="56" height="3" fill="#1F2937"/>
  <rect x="6" y="62" width="52" height="76" rx="2" fill="#1E40AF" opacity="0.3"/>
  <rect x="6" y="62" width="52" height="76" rx="2" fill="none" stroke="#111827" stroke-width="1"/>
  <line x1="32" y1="66" x2="32" y2="134" stroke="#111827" stroke-width="1.5" opacity="0.5"/>
  <rect x="16" y="32" width="3" height="8" rx="1" fill="#4B5563"/>
  <rect x="21" y="32" width="3" height="8" rx="1" fill="#4B5563"/>
  <ellipse cx="12" cy="10" rx="4" ry="2" fill="#F3F4F6"/>
  <ellipse cx="52" cy="10" rx="4" ry="2" fill="#F3F4F6"/>
  <ellipse cx="12" cy="10" rx="3" ry="1" fill="#FEF3C7"/>
  <ellipse cx="52" cy="10" rx="3" ry="1" fill="#FEF3C7"/>
  <rect x="8" y="140" width="10" height="4" rx="2" fill="#DC2626"/>
  <rect x="46" y="140" width="10" height="4" rx="2" fill="#DC2626"/>
  <rect x="9" y="141" width="8" height="2" rx="1" fill="#FCA5A5" opacity="0.5"/>
  <rect x="47" y="141" width="8" height="2" rx="1" fill="#FCA5A5" opacity="0.5"/>
  <path d="M12 6 Q32 4 52 6" stroke="#FFFFFF" stroke-width="1" fill="none" opacity="0.3"/>
  <rect x="2" y="66" width="4" height="6" rx="1" fill="#10B981"/>
  <rect x="3" y="67" width="2" height="4" rx="0.5" fill="#34D399"/>
</svg>
