<svg xmlns="http://www.w3.org/2000/svg" width="54" height="92" viewBox="0 0 54 92">
  <defs>
    <filter id="shadow" x="-20%" y="-20%" width="140%" height="140%">
      <feDropShadow dx="0" dy="2" stdDeviation="2" flood-color="#000" flood-opacity="0.12"/>
    </filter>
    <filter id="glow" x="-50%" y="-50%" width="200%" height="200%">
      <feGaussianBlur stdDeviation="3" result="blur"/>
      <feMerge>
        <feMergeNode in="blur"/>
        <feMergeNode in="SourceGraphic"/>
      </feMerge>
    </filter>
    <linearGradient id="body_crossover" x1="0%" y1="0%" x2="100%" y2="0%">
      <stop offset="0%" style="stop-color:#B91C1C;stop-opacity:1"/>
      <stop offset="20%" style="stop-color:#EF4444;stop-opacity:1"/>
      <stop offset="80%" style="stop-color:#EF4444;stop-opacity:1"/>
      <stop offset="100%" style="stop-color:#B91C1C;stop-opacity:1"/>
    </linearGradient>
    <linearGradient id="glass_crossover" x1="0%" y1="0%" x2="0%" y2="100%">
      <stop offset="0%" style="stop-color:#2563EB;stop-opacity:0.6"/>
      <stop offset="100%" style="stop-color:#1E3A5F;stop-opacity:1"/>
    </linearGradient>
  </defs>
  <path d="M6 14
            Q4 8 27 4
            Q50 8 48 14
            L50 26
            Q52 30 52 38
            L52 62
            Q52 72 50 76
            L48 84
            Q46 88 27 90
            Q8 88 6 84
            L4 76
            Q2 72 2 62
            L2 38
            Q2 30 4 26
            L6 14 Z" fill="#000000" opacity="0.25" transform="translate(2, 3)"/>
  <path d="M6 14
            Q4 8 27 4
            Q50 8 48 14
            L50 26
            Q52 30 52 38
            L52 62
            Q52 72 50 76
            L48 84
            Q46 88 27 90
            Q8 88 6 84
            L4 76
            Q2 72 2 62
            L2 38
            Q2 30 4 26
            L6 14 Z" fill="url(#body_crossover)"/>
  <path d="M6 14
            Q4 8 27 4
            Q50 8 48 14
            L50 26
            Q52 30 52 38
            L52 62
            Q52 72 50 76
            L48 84
            Q46 88 27 90
            Q8 88 6 84
            L4 76
            Q2 72 2 62
            L2 38
            Q2 30 4 26
            L6 14 Z" fill="none" stroke="#111827" stroke-width="2"/>
  <rect x="8" y="8" width="38" height="12" rx="4" fill="#EF4444" opacity="0.3"/>
  <line x1="12" y1="20" x2="42" y2="20" stroke="#B91C1C" stroke-width="1.5" opacity="0.5"/>
  <path d="M14 24 
        L40 24 
        L44 32 
        L10 32 Z" 
        fill="url(#glass_crossover)"/>
  <path d="M14 24 
        L40 24 
        L44 32 
        L10 32 Z" 
        fill="none" stroke="#111827" stroke-width="1"/>
  <rect x="16" y="26" width="8" height="4" rx="1" fill="#FFFFFF" opacity="0.2"/>
  <rect x="9" y="34" width="36" height="26" rx="3" fill="#B91C1C" opacity="0.2"/>
  <rect x="9" y="34" width="36" height="26" rx="3" fill="none" stroke="#111827" stroke-width="1" opacity="0.5"/>
  <path d="M11 62 
            L43 62 
            L40 64 
            L14 64 Z" 
            fill="url(#glass_crossover)"/>
  <path d="M11 62 
            L43 62 
            L40 64 
            L14 64 Z" 
            fill="none" stroke="#111827" stroke-width="1"/>
  <line x1="13" y1="66" x2="41" y2="66" stroke="#B91C1C" stroke-width="1.5" opacity="0.5"/>
  <ellipse cx="12" cy="10" rx="4" ry="2" fill="#F3F4F6"/>
  <ellipse cx="42" cy="10" rx="4" ry="2" fill="#F3F4F6"/>
  <ellipse cx="12" cy="10" rx="3" ry="1" fill="#FEF3C7"/>
  <ellipse cx="42" cy="10" rx="3" ry="1" fill="#FEF3C7"/>
  <rect x="8" y="80" width="10" height="4" rx="2" fill="#DC2626"/>
  <rect x="36" y="80" width="10" height="4" rx="2" fill="#DC2626"/>
  <rect x="9" y="81" width="8" height="2" rx="1" fill="#FCA5A5" opacity="0.5"/>
  <rect x="37" y="81" width="8" height="2" rx="1" fill="#FCA5A5" opacity="0.5"/>
  <rect x="24" y="6" width="6" height="16" rx="1" fill="#FFFFFF" opacity="0.9"/>
  <rect x="24" y="70" width="6" height="10" rx="1" fill="#FFFFFF" opacity="0.9"/>
  <path d="M12 6 Q27 4 42 6" stroke="#FFFFFF" stroke-width="1" fill="none" opacity="0.3"/>
  <rect x="2" y="70" width="4" height="6" rx="1" fill="#10B981"/>
  <rect x="3" y="71" width="2" height="4" rx="0.5" fill="#34D399"/>
</svg>
