<svg xmlns="http://www.w3.org/2000/svg" width="24" height="50" viewBox="0 0 24 50">
  <defs>
    <filter id="shadow" x="-20%" y="-20%" width="140%" height="140%">
      <feDropShadow dx="0" dy="2" stdDeviation="2" flood-color="#000" flood-opacity="0.12"/>
    </filter>
    <filter id="glow" x="-50%" y="-50%" width="200%" height="200%">
      <feGaussianBlur stdDeviation="3" result="blur"/>
      <feMerge>
        <feMergeNode in="blur"/>
        <feMergeNode in="SourceGraphic"/>
      </feMerge>
    </filter>
    <linearGradient id="body_scooter" x1="0%" y1="0%" x2="100%" y2="0%">
      <stop offset="0%" style="stop-color:#C2410C;stop-opacity:1"/>
      <stop offset="20%" style="stop-color:#F97316;stop-opacity:1"/>
      <stop offset="80%" style="stop-color:#F97316;stop-opacity:1"/>
      <stop offset="100%" style="stop-color:#C2410C;stop-opacity:1"/>
    </linearGradient>
    <linearGradient id="glass_scooter" x1="0%" y1="0%" x2="0%" y2="100%">
      <stop offset="0%" style="stop-color:#2563EB;stop-opacity:0.6"/>
      <stop offset="100%" style="stop-color:#1E3A5F;stop-opacity:1"/>
    </linearGradient>
  </defs>
  <path d="M4 10
            Q2 6 12 4
            Q22 6 20 10
            L22 18
            Q23 22 23 26
            L23 38
            Q23 42 22 44
            L20 46
            Q18 48 12 48
            Q6 48 4 46
            L2 44
            Q1 42 1 38
            L1 26
            Q1 22 2 18
            L4 10 Z" fill="#000000" opacity="0.25" transform="translate(2, 3)"/>
  <path d="M4 10
            Q2 6 12 4
            Q22 6 20 10
            L22 18
            Q23 22 23 26
            L23 38
            Q23 42 22 44
            L20 46
            Q18 48 12 48
            Q6 48 4 46
            L2 44
            Q1 42 1 38
            L1 26
            Q1 22 2 18
            L4 10 Z" fill="url(#body_scooter)"/>
  <path d="M4 10
            Q2 6 12 4
            Q22 6 20 10
            L22 18
            Q23 22 23 26
            L23 38
            Q23 42 22 44
            L20 46
            Q18 48 12 48
            Q6 48 4 46
            L2 44
            Q1 42 1 38
            L1 26
            Q1 22 2 18
            L4 10 Z" fill="none" stroke="#111827" stroke-width="2"/>
  <rect x="8" y="8" width="8" height="4" rx="4" fill="#F97316" opacity="0.3"/>
  <line x1="12" y1="12" x2="12" y2="12" stroke="#C2410C" stroke-width="1.5" opacity="0.5"/>
  <path d="M14 16 
        L10 16 
        L14 20 
        L10 20 Z" 
        fill="url(#glass_scooter)"/>
  <path d="M14 16 
        L10 16 
        L14 20 
        L10 20 Z" 
        fill="none" stroke="#111827" stroke-width="1"/>
  <rect x="16" y="18" width="-2" height="0" rx="1" fill="#FFFFFF" opacity="0.2"/>
  <rect x="9" y="22" width="6" height="12" rx="3" fill="#C2410C" opacity="0.2"/>
  <rect x="9" y="22" width="6" height="12" rx="3" fill="none" stroke="#111827" stroke-width="1" opacity="0.5"/>
  <rect x="2" y="12" width="20" height="3" rx="1" fill="#4B5563"/>
  <circle cx="3" cy="14" r="2" fill="#6B7280"/>
  <circle cx="21" cy="14" r="2" fill="#6B7280"/>
  <ellipse cx="12" cy="28" rx="6" ry="6" fill="#1F2937"/>
  <ellipse cx="12" cy="28" rx="5" ry="5" fill="#374151"/>
  <rect x="4" y="36" width="16" height="4" rx="1" fill="#C2410C" opacity="0.5"/>
  <line x1="13" y1="38" x2="11" y2="38" stroke="#C2410C" stroke-width="1.5" opacity="0.5"/>
  <ellipse cx="12" cy="10" rx="4" ry="2" fill="#F3F4F6"/>
  <ellipse cx="12" cy="10" rx="4" ry="2" fill="#F3F4F6"/>
  <ellipse cx="12" cy="10" rx="3" ry="1" fill="#FEF3C7"/>
  <ellipse cx="12" cy="10" rx="3" ry="1" fill="#FEF3C7"/>
  <rect x="8" y="42" width="10" height="4" rx="2" fill="#DC2626"/>
  <rect x="6" y="42" width="10" height="4" rx="2" fill="#DC2626"/>
  <rect x="9" y="43" width="8" height="2" rx="1" fill="#FCA5A5" opacity="0.5"/>
  <rect x="7" y="43" width="8" height="2" rx="1" fill="#FCA5A5" opacity="0.5"/>
  <path d="M12 6 Q12 4 12 6" stroke="#FFFFFF" stroke-width="1" fill="none" opacity="0.3"/>
  <rect x="2" y="42" width="4" height="6" rx="1" fill="#10B981"/>
  <rect x="3" y="43" width="2" height="4" rx="0.5" fill="#34D399"/>
</svg>
