<svg xmlns="http://www.w3.org/2000/svg" width="32" height="32" viewBox="0 0 32 32">
  <defs>
    <filter id="shadow" x="-20%" y="-20%" width="140%" height="140%">
      <feDropShadow dx="0" dy="2" stdDeviation="2" flood-color="#000" flood-opacity="0.12"/>
    </filter>
    <filter id="glow" x="-50%" y="-50%" width="200%" height="200%">
      <feGaussianBlur stdDeviation="3" result="blur"/>
      <feMerge>
        <feMergeNode in="blur"/>
        <feMergeNode in="SourceGraphic"/>
      </feMerge>
    </filter>
    <linearGradient id="tech_uniform" x1="0%" y1="0%" x2="0%" y2="100%">
      <stop offset="0%" style="stop-color:#38BDF8;stop-opacity:1"/>
      <stop offset="100%" style="stop-color:#0284C7;stop-opacity:1"/>
    </linearGradient>
    <linearGradient id="tech_vest" x1="0%" y1="0%" x2="100%" y2="0%">
      <stop offset="0%" style="stop-color:#EA580C;stop-opacity:1"/>
      <stop offset="50%" style="stop-color:#F97316;stop-opacity:1"/>
      <stop offset="100%" style="stop-color:#EA580C;stop-opacity:1"/>
    </linearGradient>
  </defs>
  <ellipse cx="16" cy="29" rx="9" ry="2" fill="#000000" opacity="0.15"/>
  <rect x="7" y="4" width="18" height="24" rx="4" fill="#E8A857"/>
  <rect x="9" y="17" width="14" height="11" rx="3" fill="url(#tech_uniform)" filter="url(#shadow)"/>
  <path d="M11 17 L16 23 L21 17 L21 28 L11 28 Z" fill="url(#tech_vest)"/>
  <rect x="11" y="22" width="10" height="1" fill="#FFFFFF"/>
  <rect x="11" y="25" width="10" height="1" fill="#FFFFFF"/>
  <rect x="5" y="18" width="4" height="8" rx="2" fill="#E8A857"/>
  <rect x="23" y="18" width="4" height="8" rx="2" fill="#E8A857"/>
  <circle cx="16" cy="11" r="7" fill="#E8A857" filter="url(#shadow)"/>
  <ellipse cx="16" cy="6" rx="7" ry="2" fill="#FBBF24"/>
  <rect x="9" y="2" width="14" height="5" rx="3" fill="#FCD34D"/>
  <rect x="11" y="3" width="10" height="2" rx="1" fill="#FFFFFF"/>
  <circle cx="13" cy="11" r="1.5" fill="#1F2937"/>
  <circle cx="19" cy="11" r="1.5" fill="#1F2937"/>
  <circle cx="13.5" cy="10.5" r="0.5" fill="#FFFFFF"/>
  <circle cx="19.5" cy="10.5" r="0.5" fill="#FFFFFF"/>
  <path d="M14 14 Q16 15 18 14" stroke="#1F2937" stroke-width="1" fill="none"/>
  <rect x="9" y="26" width="14" height="2" rx="1" fill="#4B5563"/>
  <rect x="10" y="26" width="3" height="3" rx="1" fill="#6B7280"/>
  <rect x="19" y="26" width="3" height="3" rx="1" fill="#6B7280"/>
</svg>
