<svg xmlns="http://www.w3.org/2000/svg" width="64" height="64" viewBox="0 0 64 64">
  <defs>
    <filter id="shadow" x="-20%" y="-20%" width="140%" height="140%">
      <feDropShadow dx="0" dy="2" stdDeviation="2" flood-color="#000" flood-opacity="0.12"/>
    </filter>
    <filter id="glow" x="-50%" y="-50%" width="200%" height="200%">
      <feGaussianBlur stdDeviation="3" result="blur"/>
      <feMerge>
        <feMergeNode in="blur"/>
        <feMergeNode in="SourceGraphic"/>
      </feMerge>
    </filter>
    <linearGradient id="arrow_paint" x1="0%" y1="0%" x2="0%" y2="100%">
      <stop offset="0%" style="stop-color:#FFFFFF;stop-opacity:1"/>
      <stop offset="100%" style="stop-color:#E8E4DC;stop-opacity:1"/>
    </linearGradient>
  </defs>
  <path d="M33 10 L49 30 L41 30 L41 58 L25 58 L25 30 L17 30 Z" fill="#000000" opacity="0.15"/>
  <path d="M32 8 L48 28 L40 28 L40 56 L24 56 L24 28 L16 28 Z" fill="url(#arrow_paint)"/>
  <path d="M32 8 L48 28 L40 28 L40 56 L24 56 L24 28 L16 28 Z" fill="none" stroke="#C4C0BA" stroke-width="0.5" opacity="0.3"/>
  <path d="M32 14 L42 26" stroke="#FFFFFF" stroke-width="1.5" opacity="0.4" stroke-linecap="round"/>
  <rect x="28" y="32" width="8" height="18" rx="1" fill="#FFFFFF" opacity="0.15"/>
  <rect x="22" y="35" width="20" height="2" fill="#3A3F4B" opacity="0.2"/>
  <rect x="24" y="45" width="16" height="1.5" fill="#3A3F4B" opacity="0.15"/>
</svg>
