<svg xmlns="http://www.w3.org/2000/svg" width="64" height="32" viewBox="0 0 64 32">
  <defs>
    <filter id="shadow" x="-20%" y="-20%" width="140%" height="140%">
      <feDropShadow dx="0" dy="2" stdDeviation="2" flood-color="#000" flood-opacity="0.12"/>
    </filter>
    <filter id="glow" x="-50%" y="-50%" width="200%" height="200%">
      <feGaussianBlur stdDeviation="3" result="blur"/>
      <feMerge>
        <feMergeNode in="blur"/>
        <feMergeNode in="SourceGraphic"/>
      </feMerge>
    </filter>
  </defs>
  <path d="M4 18 L12 14 L20 16 L28 12 L36 15 L44 10 L52 14 L60 12" stroke="#1a1a1a" stroke-width="2.5" fill="none" stroke-linecap="round" stroke-linejoin="round" opacity="0.4"/>
  <path d="M4 18 L12 14 L20 16 L28 12 L36 15 L44 10 L52 14 L60 12" stroke="#2E323A" stroke-width="1.5" fill="none" stroke-linecap="round" stroke-linejoin="round"/>
  <path d="M20 16 L18 22" stroke="#2E323A" stroke-width="1" fill="none" opacity="0.6"/>
  <path d="M36 15 L40 20 L38 24" stroke="#2E323A" stroke-width="0.8" fill="none" opacity="0.5"/>
  <path d="M28 12 L26 8" stroke="#2E323A" stroke-width="0.7" fill="none" opacity="0.4"/>
  <path d="M52 14 L56 18" stroke="#2E323A" stroke-width="0.6" fill="none" opacity="0.5"/>
  <path d="M14 13 L16 11" stroke="#2E323A" stroke-width="0.5" fill="none" opacity="0.3"/>
  <path d="M46 11 L48 9" stroke="#2E323A" stroke-width="0.5" fill="none" opacity="0.3"/>
  <circle cx="22" cy="20" r="1" fill="#2E323A"/>
  <circle cx="42" cy="18" r="0.8" fill="#2E323A"/>
  <circle cx="22" cy="20" r="1" fill="#2E323A" opacity="0.3"/>
  <circle cx="42" cy="18" r="0.8" fill="#2E323A" opacity="0.25"/>
</svg>
