<?xml version="1.0" encoding="UTF-8"?>
<svg id="Layer_1" xmlns="http://www.w3.org/2000/svg" version="1.1" xmlns:xlink="http://www.w3.org/1999/xlink" viewBox="0 0 2765.8 1022.2">
  <!-- Generator: Adobe Illustrator 30.0.0, SVG Export Plug-In . SVG Version: 2.1.1 Build 123)  -->
  <defs>
    <style>
      .st0 {
        fill: url(#radial-gradient);
      }
    </style>
    <radialGradient id="radial-gradient" cx="741.9" cy="253.8" fx="741.9" fy="253.8" r="504.8" gradientUnits="userSpaceOnUse">
      <stop offset="0" stop-color="#e0dd47"/>
      <stop offset="1" stop-color="#f58820"/>
    </radialGradient>
  </defs>
  <rect class="st0" x="187.1" y="215.6" width="591" height="590.9" rx="99.1" ry="99.1"/>
  <polygon points="482.6 372.4 371.2 372.4 371.2 273.6 234.6 410.2 346 410.2 346 509 482.6 372.4"/>
  <polygon points="730.6 372.4 619.2 372.4 619.2 273.6 482.6 410.2 594 410.2 594 509 730.6 372.4"/>
  <polygon points="482.6 612 371.2 612 371.2 513.2 234.6 649.8 346 649.8 346 748.6 482.6 612"/>
  <polygon points="730.6 612 619.2 612 619.2 513.2 482.6 649.8 594 649.8 594 748.6 730.6 612"/>
  <g>
    <path d="M889.9,497.9v-195.3h49v156l-13.3-10.2,115.6-145.8h52.1l-159.1,195.3h-44.3ZM983.3,403.3l35.4-30.5,77.1,125h-55.7l-56.8-94.5Z"/>
    <path d="M1113.8,302.6h49.2v195.3h-49.2v-195.3Z"/>
    <path d="M1250.3,302.6v173.4l-22.1-21.6h146.4v43.5h-173.4v-195.3h49.2Z"/>
    <path d="M1494.8,502c-22.9,0-43-4.3-60.3-12.8-17.3-8.5-30.7-20.4-40.2-35.7-9.6-15.3-14.3-33.1-14.3-53.4s4.8-38.1,14.3-53.4c9.5-15.3,23-27.2,40.2-35.7,17.3-8.5,37.4-12.8,60.3-12.8s43,4.3,60.3,12.8c17.3,8.5,30.7,20.4,40.4,35.7,9.6,15.3,14.5,33.1,14.5,53.4s-4.8,38.1-14.5,53.4c-9.6,15.3-23.1,27.2-40.4,35.7-17.3,8.5-37.4,12.8-60.3,12.8ZM1494.8,458c13.5,0,25.2-2.3,34.9-6.9,9.7-4.6,17.2-11.2,22.5-19.9,5.3-8.7,7.9-19,7.9-31s-2.6-22.3-7.9-31c-5.3-8.7-12.8-15.3-22.5-19.9-9.7-4.6-21.4-6.9-34.9-6.9s-24.9,2.3-34.6,6.9c-9.7,4.6-17.3,11.2-22.7,19.9-5.4,8.7-8.1,19-8.1,31s2.7,22.3,8.1,31c5.4,8.7,12.9,15.3,22.7,19.9,9.7,4.6,21.3,6.9,34.6,6.9Z"/>
    <path d="M1875,477.3l-15.9.3,51.3-175h51.8l-61.2,195.3h-62.8l-59.1-169.8h20.6l-58.9,169.8h-63l-61.2-195.3h52.1l51.3,174.7-15.6-.3,59.1-174.5h52.1l59.4,174.7Z"/>
    <path d="M2103.2,302.6l90.1,195.3h-52.3l-77.3-174.7h15.1l-77.1,174.7h-52.3l90.1-195.3h63.8ZM2002.6,458.5v-39.6h134.9v39.6h-134.9Z"/>
    <path d="M2166.7,302.6h201.3v43.5h-201.3v-43.5ZM2242.8,324.2h49.2v173.7h-49.2v-173.7Z"/>
    <path d="M2377.4,302.6h201.3v43.5h-201.3v-43.5ZM2453.4,324.2h49.2v173.7h-49.2v-173.7Z"/>
  </g>
  <g>
    <path d="M894.5,534.6h201.3v43.5h-201.3v-43.5ZM970.6,556.2h49.2v173.7h-49.2v-173.7Z"/>
    <path d="M1102.9,534.6h54.4l72.9,92.7h-22.7l72.9-92.7h54.4l-100,127.1-31.8.5-100.3-127.6ZM1194.5,729.9v-94.5h49.2v94.5h-49.2Z"/>
    <path d="M1547.2,649.2c-1.9,16.8-7.7,31.6-17.4,44.4-9.7,12.8-22.6,22.7-38.5,29.8-16,7.1-34.2,10.7-54.7,10.7s-42.1-4.3-59-12.8c-16.9-8.5-30.1-20.4-39.5-35.7-9.4-15.3-14.1-33.1-14.1-53.4s4.7-38.1,14.1-53.4c9.4-15.3,22.5-27.2,39.5-35.7,16.9-8.5,36.6-12.8,59-12.8s38.7,3.6,54.7,10.7c16,7.1,28.8,17,38.5,29.7,9.7,12.7,15.5,27.5,17.4,44.5h-49.5c-1.7-8.9-5.3-16.4-10.5-22.7-5.3-6.3-12.2-11.1-20.8-14.5-8.6-3.4-18.5-5.1-29.8-5.1s-24.2,2.4-33.6,7.2c-9.4,4.8-16.6,11.6-21.6,20.4-5,8.9-7.6,19.4-7.6,31.5s2.5,22.7,7.6,31.5c5,8.9,12.2,15.7,21.6,20.4,9.4,4.8,20.6,7.2,33.6,7.2s21.2-1.6,29.8-4.9c8.6-3.3,15.5-8.1,20.8-14.3,5.3-6.3,8.8-13.9,10.5-22.9h49.5Z"/>
    <path d="M1680.8,734.1c-22.9,0-43-4.3-60.3-12.8-17.3-8.5-30.7-20.4-40.2-35.7-9.6-15.3-14.3-33.1-14.3-53.4s4.8-38.1,14.3-53.4c9.5-15.3,23-27.2,40.2-35.7,17.3-8.5,37.4-12.8,60.3-12.8s43,4.3,60.3,12.8c17.3,8.5,30.7,20.4,40.4,35.7,9.6,15.3,14.5,33.1,14.5,53.4s-4.8,38.1-14.5,53.4c-9.6,15.3-23.1,27.2-40.4,35.7-17.3,8.5-37.4,12.8-60.3,12.8ZM1680.8,690.1c13.5,0,25.2-2.3,34.9-6.9,9.7-4.6,17.2-11.2,22.5-19.9,5.3-8.7,7.9-19,7.9-31s-2.6-22.3-7.9-31c-5.3-8.7-12.8-15.3-22.5-19.9-9.7-4.6-21.4-6.9-34.9-6.9s-24.9,2.3-34.6,6.9c-9.7,4.6-17.3,11.2-22.7,19.9-5.4,8.7-8.1,19-8.1,31s2.7,22.3,8.1,31c5.4,8.7,12.9,15.3,22.7,19.9,9.7,4.6,21.3,6.9,34.6,6.9Z"/>
    <path d="M1931,734.1c-22.9,0-43-4.3-60.3-12.8-17.3-8.5-30.7-20.4-40.2-35.7-9.6-15.3-14.3-33.1-14.3-53.4s4.8-38.1,14.3-53.4c9.5-15.3,23-27.2,40.2-35.7,17.3-8.5,37.4-12.8,60.3-12.8s43,4.3,60.3,12.8c17.3,8.5,30.7,20.4,40.4,35.7,9.6,15.3,14.5,33.1,14.5,53.4s-4.8,38.1-14.5,53.4c-9.6,15.3-23.1,27.2-40.4,35.7-17.3,8.5-37.4,12.8-60.3,12.8ZM1931,690.1c13.5,0,25.2-2.3,34.9-6.9,9.7-4.6,17.2-11.2,22.5-19.9,5.3-8.7,7.9-19,7.9-31s-2.6-22.3-7.9-31c-5.3-8.7-12.8-15.3-22.5-19.9-9.7-4.6-21.4-6.9-34.9-6.9s-24.9,2.3-34.6,6.9c-9.7,4.6-17.3,11.2-22.7,19.9-5.4,8.7-8.1,19-8.1,31s2.7,22.3,8.1,31c5.4,8.7,12.9,15.3,22.7,19.9,9.7,4.6,21.3,6.9,34.6,6.9Z"/>
    <path d="M2256.3,696.3l-15.9,2.9v-164.6h47.7v195.3h-62l-119-164.6,15.9-2.9v167.5h-47.7v-195.3h63.8l117.2,161.7Z"/>
  </g>
</svg>