<?xml version="1.0" encoding="UTF-8"?>
<svg id="Layer_1" xmlns="http://www.w3.org/2000/svg" version="1.1" viewBox="0 0 1250 1250">
  <!-- Generator: Adobe Illustrator 30.0.0, SVG Export Plug-In . SVG Version: 2.1.1 Build 123)  -->
  <defs>
    <style>
      .st0 {
        fill: #fff;
      }
    </style>
  </defs>
  <rect x="-18.4" y="-25.3" width="1296" height="1296"/>
  <g>
    <polygon class="st0" points="340.3 1117.9 340.3 911.9 108.1 911.9 392.8 627.2 392.8 833.1 625 833.1 340.3 1117.9"/>
    <polygon class="st0" points="857.2 1117.9 857.2 911.9 625 911.9 909.8 627.2 909.8 833.1 1142 833.1 857.2 1117.9"/>
    <polygon class="st0" points="857.2 618.3 857.2 412.3 625 412.3 909.8 127.6 909.8 333.5 1142 333.5 857.2 618.3"/>
    <polygon class="st0" points="340.3 618.3 340.3 412.3 108.1 412.3 392.8 127.6 392.8 333.5 625 333.5 340.3 618.3"/>
  </g>
</svg>