<?xml version="1.0" encoding="UTF-8"?>
<svg id="Layer_1" xmlns="http://www.w3.org/2000/svg" version="1.1" viewBox="0 0 1250 1250">
  <!-- Generator: Adobe Illustrator 30.0.0, SVG Export Plug-In . SVG Version: 2.1.1 Build 123)  -->
  <path d="M923.1,169.9H327c-83,0-150.3,67.3-150.3,150.3v596.1c0,83,67.3,150.3,150.3,150.3h596.1c83,0,150.3-67.3,150.3-150.3V320.2c0-83-67.3-150.3-150.3-150.3ZM456,257.8v149.9h169l-207.3,207.3v-149.9h-169l207.3-207.3ZM248.7,828.8l207.3-207.3v149.9h169l-207.3,207.3v-149.9h-169ZM794.1,978.7v-149.9h-169l207.3-207.3v149.9h169.1l-207.3,207.3ZM794.1,615v-149.9h-169l207.3-207.3v149.9h169.1l-207.3,207.3Z"/>
</svg>