<?xml version="1.0" encoding="UTF-8"?>
<svg id="Layer_1" xmlns="http://www.w3.org/2000/svg" version="1.1" xmlns:xlink="http://www.w3.org/1999/xlink" viewBox="0 0 1250 1250">
  <!-- Generator: Adobe Illustrator 30.0.0, SVG Export Plug-In . SVG Version: 2.1.1 Build 123)  -->
  <defs>
    <style>
      .st0 {
        fill: #121212;
      }

      .st1 {
        fill: url(#radial-gradient);
      }
    </style>
    <radialGradient id="radial-gradient" cx="1018.5" cy="227.8" fx="1018.5" fy="227.8" r="766" gradientUnits="userSpaceOnUse">
      <stop offset="0" stop-color="#e0dd47"/>
      <stop offset="1" stop-color="#f58820"/>
    </radialGradient>
  </defs>
  <rect class="st0" x="-18.4" y="-25.3" width="1296" height="1296"/>
  <path class="st1" d="M923.1,169.9H327c-83,0-150.3,67.3-150.3,150.3v596.1c0,83,67.3,150.3,150.3,150.3h596.1c83,0,150.3-67.3,150.3-150.3V320.2c0-83-67.3-150.3-150.3-150.3ZM456,257.8v149.9h169l-207.3,207.3v-149.9h-169l207.3-207.3ZM248.7,828.8l207.3-207.3v149.9h169l-207.3,207.3v-149.9h-169ZM794.1,978.7v-149.9h-169l207.3-207.3v149.9h169.1l-207.3,207.3ZM794.1,615v-149.9h-169l207.3-207.3v149.9h169.1l-207.3,207.3Z"/>
</svg>