<?xml version="1.0" encoding="UTF-8"?>
<svg id="Layer_1" xmlns="http://www.w3.org/2000/svg" version="1.1" xmlns:xlink="http://www.w3.org/1999/xlink" viewBox="0 0 1250 1250">
  <!-- Generator: Adobe Illustrator 30.0.0, SVG Export Plug-In . SVG Version: 2.1.1 Build 123)  -->
  <defs>
    <style>
      .st0 {
        fill: url(#radial-gradient);
      }
    </style>
    <radialGradient id="radial-gradient" cx="1023.1" cy="236.7" fx="1023.1" fy="236.7" r="766" gradientUnits="userSpaceOnUse">
      <stop offset="0" stop-color="#e0dd47"/>
      <stop offset="1" stop-color="#f58820"/>
    </radialGradient>
  </defs>
  <path class="st0" d="M1078,329.1v596.1c0,83-67.3,150.3-150.3,150.3H331.6c-83,0-150.3-67.3-150.3-150.3V329.1c0-83,67.3-150.3,150.3-150.3h596.1c83,0,150.3,67.3,150.3,150.3Z"/>
  <polygon points="629.6 416.6 460.6 416.6 460.6 266.7 253.3 474 422.3 474 422.3 623.9 629.6 416.6"/>
  <polygon points="1006 416.6 836.9 416.6 836.9 266.7 629.6 474 798.7 474 798.7 623.9 1006 416.6"/>
  <polygon points="629.6 780.3 460.6 780.3 460.6 630.4 253.3 837.7 422.3 837.7 422.3 987.6 629.6 780.3"/>
  <polygon points="1006 780.3 836.9 780.3 836.9 630.4 629.6 837.7 798.7 837.7 798.7 987.6 1006 780.3"/>
</svg>