<svg xmlns="http://www.w3.org/2000/svg" width="48" height="64" viewBox="0 0 48 64">
  <defs>
    <filter id="shadow" x="-20%" y="-20%" width="140%" height="140%">
      <feDropShadow dx="0" dy="2" stdDeviation="2" flood-color="#000" flood-opacity="0.12"/>
    </filter>
    <filter id="glow" x="-50%" y="-50%" width="200%" height="200%">
      <feGaussianBlur stdDeviation="3" result="blur"/>
      <feMerge>
        <feMergeNode in="blur"/>
        <feMergeNode in="SourceGraphic"/>
      </feMerge>
    </filter>
  </defs>
  <path d="M24 4 Q8 20 20 40 Q28 52 24 58" stroke="#4B5563" stroke-width="10" fill="none" stroke-linecap="round"/>
  <path d="M24 4 Q8 20 20 40 Q28 52 24 58" stroke="#6B7280" stroke-width="7" fill="none" stroke-linecap="round"/>
  <path d="M22 6 Q10 18 18 36" stroke="#9CA3AF" stroke-width="2" fill="none" stroke-linecap="round" opacity="0.5"/>
  <rect x="10" y="52" width="28" height="12" rx="4" fill="#4B5563" filter="url(#shadow)"/>
  <rect x="12" y="54" width="24" height="9" rx="3" fill="#9CA3AF"/>
  <circle cx="18" cy="57" r="3" fill="#111827"/>
  <circle cx="30" cy="57" r="3" fill="#111827"/>
  <circle cx="24" cy="56" r="2" fill="#111827"/>
  <rect x="16" y="59" width="5" height="3" rx="1" fill="#111827" filter="url(#shadow)"/>
  <rect x="27" y="59" width="5" height="3" rx="1" fill="#111827" filter="url(#shadow)"/>
</svg>
