<svg xmlns="http://www.w3.org/2000/svg" width="64" height="64" viewBox="0.0 -8.0 64 64">
  <defs>
    <filter id="shadow" x="-20%" y="-20%" width="140%" height="140%">
      <feDropShadow dx="0" dy="2" stdDeviation="2" flood-color="#000" flood-opacity="0.12"/>
    </filter>
    <filter id="glow" x="-50%" y="-50%" width="200%" height="200%">
      <feGaussianBlur stdDeviation="3" result="blur"/>
      <feMerge>
        <feMergeNode in="blur"/>
        <feMergeNode in="SourceGraphic"/>
      </feMerge>
    </filter>
    <radialGradient id="gas_icon_glow" cx="50%" cy="50%" r="50%">
      <stop offset="0%" style="stop-color:#FF6B35;stop-opacity:1"/>
      <stop offset="70%" style="stop-color:#FF6B35;stop-opacity:0.8"/>
      <stop offset="100%" style="stop-color:#FF9F6B;stop-opacity:0.3"/>
    </radialGradient>
    <radialGradient id="gas_icon_inner" cx="40%" cy="40%" r="60%">
      <stop offset="0%" style="stop-color:#FFFFFF;stop-opacity:0.3"/>
      <stop offset="100%" style="stop-color:#FF6B35;stop-opacity:0"/>
    </radialGradient>
  </defs>
  <circle cx="32" cy="20" r="22" fill="#FF9F6B" opacity="0.3"/>
  <circle cx="32" cy="20" r="18" fill="url(#gas_icon_glow)" filter="url(#shadow)"/>
  <circle cx="32" cy="20" r="16" fill="none" stroke="#FFFFFF" stroke-width="2" opacity="0.5"/>
  <rect x="26" y="12" width="8" height="14" rx="1" fill="#FFFFFF" opacity="0.9"/>
  <rect x="28" y="14" width="4" height="4" rx="0.5" fill="#FF6B35"/>
  <path d="M34 16 Q38 16 38 20 L38 24 L36 24 L36 20 Q36 18 34 18" stroke="#FFFFFF" stroke-width="2" fill="none" opacity="0.9"/>
  <circle cx="32" cy="20" r="16" fill="url(#gas_icon_inner)"/>
  <rect x="28" y="38" width="8" height="10" rx="1" fill="#71717A"/>
  <rect x="30" y="40" width="4" height="2" fill="#A1A1AA"/>
</svg>
