<svg xmlns="http://www.w3.org/2000/svg" width="64" height="64" viewBox="0 0 64 64">
  <defs>
    <filter id="shadow" x="-20%" y="-20%" width="140%" height="140%">
      <feDropShadow dx="0" dy="2" stdDeviation="2" flood-color="#000" flood-opacity="0.12"/>
    </filter>
    <filter id="glow" x="-50%" y="-50%" width="200%" height="200%">
      <feGaussianBlur stdDeviation="3" result="blur"/>
      <feMerge>
        <feMergeNode in="blur"/>
        <feMergeNode in="SourceGraphic"/>
      </feMerge>
    </filter>
    <pattern id="grass_blades_fine" patternUnits="userSpaceOnUse" width="12" height="12">
      <rect width="12" height="12" fill="#5D7F4A"/>
      <path d="M1 12 Q1.5 9 2 5" stroke="#4A6639" stroke-width="1.2" fill="none" opacity="0.5"/>
      <path d="M4 12 Q3.5 8 5 4" stroke="#7BA668" stroke-width="0.8" fill="none" opacity="0.6"/>
      <path d="M7 12 Q7.5 10 6.5 6" stroke="#4F6B3D" stroke-width="1" fill="none" opacity="0.45"/>
      <path d="M10 12 Q9 7 11 3" stroke="#8DB474" stroke-width="0.9" fill="none" opacity="0.55"/>
    </pattern>
    <pattern id="grass_blades_coarse" patternUnits="userSpaceOnUse" width="20" height="20">
      <rect width="20" height="20" fill="#5D7F4A"/>
      <path d="M3 20 Q2 14 4 8" stroke="#4A6639" stroke-width="1.8" fill="none" opacity="0.35"/>
      <path d="M8 20 Q9 12 7 5" stroke="#7BA668" stroke-width="1.4" fill="none" opacity="0.4"/>
      <path d="M14 20 Q13 15 15 9" stroke="#8DB474" stroke-width="1.2" fill="none" opacity="0.38"/>
      <path d="M18 20 Q19 11 17 4" stroke="#4F6B3D" stroke-width="1.5" fill="none" opacity="0.32"/>
    </pattern>
  </defs>
  <rect x="0" y="0" width="64" height="64" fill="#5D7F4A"/>
  <ellipse cx="10" cy="15" rx="14" ry="10" fill="#4A6639" opacity="0.25"/>
  <ellipse cx="52" cy="48" rx="16" ry="12" fill="#7BA668" opacity="0.2"/>
  <ellipse cx="40" cy="12" rx="12" ry="8" fill="#8DB474" opacity="0.15"/>
  <ellipse cx="18" cy="52" rx="14" ry="9" fill="#4F6B3D" opacity="0.18"/>
  <rect x="0" y="0" width="64" height="64" fill="url(#grass_blades_coarse)"/>
  <rect x="0" y="0" width="64" height="64" fill="url(#grass_blades_fine)"/>
  <circle cx="8" cy="22" r="1.8" fill="#7BA668" opacity="0.5"/>
  <circle cx="10" cy="20" r="1.6" fill="#8DB474" opacity="0.45"/>
  <circle cx="6" cy="20" r="1.5" fill="#7BA668" opacity="0.4"/>
  <circle cx="50" cy="32" r="1.5" fill="#8DB474" opacity="0.45"/>
  <circle cx="52" cy="30" r="1.4" fill="#7BA668" opacity="0.5"/>
  <circle cx="48" cy="30" r="1.3" fill="#8DB474" opacity="0.4"/>
  <circle cx="30" cy="56" r="1.6" fill="#7BA668" opacity="0.4"/>
  <circle cx="32" cy="54" r="1.4" fill="#8DB474" opacity="0.45"/>
  <circle cx="28" cy="54" r="1.5" fill="#7BA668" opacity="0.42"/>
  <ellipse cx="24" cy="8" rx="3" ry="2" fill="#4A6639" opacity="0.3"/>
  <ellipse cx="58" cy="18" rx="4" ry="2.5" fill="#4F6B3D" opacity="0.25"/>
  <ellipse cx="4" cy="45" rx="3.5" ry="2" fill="#8DB474" opacity="0.28"/>
  <ellipse cx="42" cy="60" rx="4" ry="2" fill="#7BA668" opacity="0.22"/>
</svg>
