<svg xmlns="http://www.w3.org/2000/svg" width="64" height="64" viewBox="0 0 64 64">
  <defs>
    <filter id="shadow" x="-20%" y="-20%" width="140%" height="140%">
      <feDropShadow dx="0" dy="2" stdDeviation="2" flood-color="#000" flood-opacity="0.12"/>
    </filter>
    <filter id="glow" x="-50%" y="-50%" width="200%" height="200%">
      <feGaussianBlur stdDeviation="3" result="blur"/>
      <feMerge>
        <feMergeNode in="blur"/>
        <feMergeNode in="SourceGraphic"/>
      </feMerge>
    </filter>
    <radialGradient id="tree_canopy_main" cx="45%" cy="45%" r="55%">
      <stop offset="0%" style="stop-color:#7BA668;stop-opacity:1"/>
      <stop offset="50%" style="stop-color:#5D7F4A;stop-opacity:1"/>
      <stop offset="100%" style="stop-color:#4A6639;stop-opacity:0.9"/>
    </radialGradient>
    <radialGradient id="tree_trunk" cx="40%" cy="40%" r="60%">
      <stop offset="0%" style="stop-color:#8B7355;stop-opacity:1"/>
      <stop offset="100%" style="stop-color:#4A3728;stop-opacity:1"/>
    </radialGradient>
  </defs>
  <ellipse cx="36" cy="38" rx="20" ry="6" fill="#000000" opacity="0.25"/>
  <ellipse cx="28" cy="28" rx="18" ry="16" fill="#4A6639" opacity="0.9"/>
  <ellipse cx="38" cy="26" rx="16" ry="18" fill="#4A6639" opacity="0.85"/>
  <ellipse cx="32" cy="36" rx="17" ry="14" fill="#4A6639" opacity="0.8"/>
  <ellipse cx="26" cy="26" rx="14" ry="12" fill="url(#tree_canopy_main)"/>
  <ellipse cx="38" cy="24" rx="13" ry="14" fill="url(#tree_canopy_main)"/>
  <ellipse cx="30" cy="35" rx="14" ry="11" fill="url(#tree_canopy_main)"/>
  <ellipse cx="40" cy="34" rx="11" ry="10" fill="#5D7F4A" opacity="0.9"/>
  <line x1="32" y1="32" x2="20" y2="22" stroke="#5D4E37" stroke-width="2" opacity="0.4"/>
  <line x1="32" y1="32" x2="44" y2="24" stroke="#5D4E37" stroke-width="2" opacity="0.35"/>
  <line x1="32" y1="32" x2="24" y2="40" stroke="#5D4E37" stroke-width="1.5" opacity="0.3"/>
  <line x1="32" y1="32" x2="42" y2="38" stroke="#5D4E37" stroke-width="1.5" opacity="0.3"/>
  <circle cx="22" cy="22" r="6" fill="#7BA668" opacity="0.7"/>
  <circle cx="40" cy="20" r="5" fill="#8DB474" opacity="0.6"/>
  <circle cx="18" cy="30" r="4" fill="#7BA668" opacity="0.5"/>
  <circle cx="44" cy="32" r="5" fill="#7BA668" opacity="0.55"/>
  <circle cx="28" cy="38" r="4" fill="#8DB474" opacity="0.5"/>
  <circle cx="36" cy="18" r="4" fill="#7BA668" opacity="0.6"/>
  <circle cx="24" cy="20" r="2" fill="#A8D08D" opacity="0.7"/>
  <circle cx="38" cy="22" r="1.5" fill="#A8D08D" opacity="0.6"/>
  <circle cx="20" cy="28" r="1.5" fill="#A8D08D" opacity="0.5"/>
  <circle cx="42" cy="30" r="2" fill="#A8D08D" opacity="0.55"/>
  <circle cx="32" cy="32" r="5" fill="url(#tree_trunk)"/>
  <circle cx="32" cy="32" r="3.5" fill="#5D4E37"/>
  <circle cx="32" cy="32" r="2" fill="none" stroke="#4A3728" stroke-width="0.5" opacity="0.6"/>
  <circle cx="31" cy="31" r="1" fill="#6B5B4A" opacity="0.5"/>
</svg>
