<svg xmlns="http://www.w3.org/2000/svg" width="64" height="64" viewBox="-8.0 -16.0 64 64">
  <defs>
    <filter id="shadow" x="-20%" y="-20%" width="140%" height="140%">
      <feDropShadow dx="0" dy="2" stdDeviation="2" flood-color="#000" flood-opacity="0.12"/>
    </filter>
    <filter id="glow" x="-50%" y="-50%" width="200%" height="200%">
      <feGaussianBlur stdDeviation="3" result="blur"/>
      <feMerge>
        <feMergeNode in="blur"/>
        <feMergeNode in="SourceGraphic"/>
      </feMerge>
    </filter>
    <linearGradient id="cabinet_body" x1="0%" y1="0%" x2="100%" y2="100%">
      <stop offset="0%" style="stop-color:#9CA3AF;stop-opacity:1"/>
      <stop offset="100%" style="stop-color:#4B5563;stop-opacity:1"/>
    </linearGradient>
  </defs>
  <rect x="2" y="2" width="44" height="28" rx="4" fill="#4B5563" filter="url(#shadow)"/>
  <rect x="4" y="2" width="40" height="26" rx="3" fill="url(#cabinet_body)"/>
  <rect x="6" y="3" width="36" height="2" rx="1" fill="#D1D5DB" opacity="0.5"/>
  <rect x="6" y="6" width="16" height="20" rx="2" fill="#4B5563"/>
  <rect x="7" y="7" width="14" height="18" rx="1" fill="#6B7280"/>
  <rect x="18" y="14" width="2" height="6" rx="1" fill="#9CA3AF"/>
  <rect x="26" y="6" width="16" height="20" rx="2" fill="#4B5563"/>
  <rect x="27" y="7" width="14" height="18" rx="1" fill="#6B7280"/>
  <rect x="28" y="14" width="2" height="6" rx="1" fill="#9CA3AF"/>
  <rect x="9" y="9" width="10" height="1" fill="#4B5563" opacity="0.5"/>
  <rect x="29" y="9" width="10" height="1" fill="#4B5563" opacity="0.5"/>
  <rect x="9" y="13" width="10" height="1" fill="#4B5563" opacity="0.5"/>
  <rect x="29" y="13" width="10" height="1" fill="#4B5563" opacity="0.5"/>
  <rect x="9" y="17" width="10" height="1" fill="#4B5563" opacity="0.5"/>
  <rect x="29" y="17" width="10" height="1" fill="#4B5563" opacity="0.5"/>
  <circle cx="24" cy="4" r="2" fill="#4CAF50"/>
  <circle cx="24" cy="4" r="1" fill="#81C784" opacity="0.7"/>
  <rect x="38" y="21" width="4" height="5" rx="1" fill="#FFC107"/>
  <path d="M39 21 Q39 18 40 18 Q41 18 41 21" stroke="#FFC107" stroke-width="1" fill="none"/>
</svg>
